<svg width="241" height="6" viewBox="0 0 241 6" fill="none" xmlns="http://www.w3.org/2000/svg">
<path d="M0.333333 3C0.333333 4.47276 1.52724 5.66667 3 5.66667C4.47276 5.66667 5.66667 4.47276 5.66667 3C5.66667 1.52724 4.47276 0.333333 3 0.333333C1.52724 0.333333 0.333333 1.52724 0.333333 3ZM234.833 3C234.833 4.47276 236.027 5.66667 237.5 5.66667C238.973 5.66667 240.167 4.47276 240.167 3C240.167 1.52724 238.973 0.333333 237.5 0.333333C236.027 0.333333 234.833 1.52724 234.833 3ZM3 3V3.5H237.5V3V2.5H3V3Z" fill="black"/>
</svg>
