<svg width="74" height="51" viewBox="0 0 74 51" fill="none" xmlns="http://www.w3.org/2000/svg">
<path fill-rule="evenodd" clip-rule="evenodd" d="M39.9817 0.00878906L34.8712 5.1231V18.3456H39.9817V0.00878906ZM39.9817 33.7812H34.8712V46.7791L39.9817 51.0002V33.7812Z" fill="url(#paint0_linear_143_41)"/>
<path fill-rule="evenodd" clip-rule="evenodd" d="M50.2192 0L42.5535 5.13117V18.3451H50.2192V0ZM50.2192 33.7807H42.5535V46.7702L50.2192 50.9915V33.7807Z" fill="url(#paint1_linear_143_41)"/>
<path fill-rule="evenodd" clip-rule="evenodd" d="M63.3197 0L52.775 5.12274V18.345H63.3197V0ZM63.3197 33.7807H52.775V46.7787L63.3197 50.9915V33.7807Z" fill="url(#paint2_linear_143_41)"/>
<path d="M6.00912 32.6489H2.26269L0 30.3556V25.5855L2.26269 23.2922H6.10186L7.08483 24.026H7.14047L7.21466 23.2922H9.08787V32.6489H7.12192L7.10337 31.8416H7.04773L6.00912 32.6489ZM2.29979 29.4015L3.26422 30.3739H5.63819L6.84372 29.4015V26.5578L5.54545 25.5671H3.26422L2.29979 26.5578V29.4015ZM19.5595 32.6489H10.1007V30.3189H13.9954V25.6222H10.2862V23.2922H16.388V30.3189H19.5595V32.6489ZM16.2952 21.9346H13.7358V19.4395H16.2952V21.9346Z" fill="black"/>
<path d="M25.9064 31.6963L26.8978 31.6791V33.8301H25.9064C25.7846 33.8301 25.6627 33.8301 25.5409 33.813C24.3059 33.6409 23.3665 32.5911 23.3665 31.3178V27.4804C23.3318 27.3083 23.1751 27.1878 23.0012 27.1878H22.0096V25.0368H23.0012C23.1751 25.0368 23.3318 24.9163 23.3665 24.7443V20.9069C23.3665 19.6334 24.3059 18.5838 25.5409 18.4117C25.6627 18.3945 25.7846 18.3945 25.9064 18.3945H26.8978V20.5455H25.9064C25.7324 20.5455 25.5758 20.6659 25.5409 20.838V24.6926C25.5409 24.8131 25.5409 24.9336 25.5236 25.054C25.4714 25.4497 25.3148 25.8112 25.0886 26.1209C25.3148 26.4306 25.4714 26.792 25.5236 27.1878C25.5409 27.3083 25.5409 27.4287 25.5409 27.5491V31.4038C25.5758 31.5759 25.7324 31.6963 25.9064 31.6963Z" fill="black" fill-opacity="0.5"/>
<path d="M70.1033 20.4414L69.1118 20.4587V18.3076H70.1033C70.2251 18.3076 70.3468 18.3076 70.4686 18.3249C71.7037 18.497 72.6431 19.5466 72.6431 20.8201V24.6575C72.6779 24.8295 72.8344 24.95 73.0084 24.95H74V27.101H73.0084C72.8344 27.101 72.6779 27.2214 72.6431 27.3935V31.231C72.6431 32.5043 71.7037 33.554 70.4686 33.726C70.3468 33.7433 70.225 33.7433 70.1033 33.7433H69.1118V31.5923H70.1033C70.2773 31.5923 70.4338 31.4718 70.4686 31.2997V27.4452C70.4686 27.3247 70.4686 27.2043 70.486 27.0838C70.5382 26.688 70.6948 26.3266 70.9209 26.0169C70.6948 25.7071 70.5382 25.3458 70.486 24.95C70.4686 24.8295 70.4686 24.7091 70.4686 24.5886V20.734C70.4338 20.5619 70.2773 20.4414 70.1033 20.4414Z" fill="black" fill-opacity="0.5"/>
<path fill-rule="evenodd" clip-rule="evenodd" d="M29.4711 32.2787H36.4355L39.1757 29.3612V22.7731L36.4355 19.8555H29.4711V32.2787ZM31.8687 29.907V22.2272H35.3889L36.778 23.6954V28.4388L35.3889 29.907H31.8687ZM49.6339 22.2272V19.8555H39.9293V32.2787H49.6339V29.907H42.327V27.0271H48.4922V24.6742H42.327V22.2272H49.6339ZM56.572 19.8555H53.7176L50.1212 30.5469V32.2787H52.1573L52.9375 29.9446H57.3521L58.1323 32.2787H60.1683V30.5469L56.572 19.8555ZM53.6605 27.7423L55.0306 23.6201L55.24 23.6013L56.629 27.7423H53.6605ZM67.7828 32.2787V29.907H63.3006V19.8555H60.8459V32.2787H67.7828Z" fill="black"/>
<path fill-rule="evenodd" clip-rule="evenodd" d="M32.2989 0L29.4711 5.12274V18.3509H32.2989V0ZM32.2989 33.7866H29.4711V46.7787L32.2989 50.9915V33.7866Z" fill="url(#paint3_linear_143_41)"/>
<defs>
<linearGradient id="paint0_linear_143_41" x1="37.4264" y1="25.4802" x2="37.4264" y2="50.96" gradientUnits="userSpaceOnUse">
<stop/>
<stop offset="1" stop-opacity="0.5"/>
</linearGradient>
<linearGradient id="paint1_linear_143_41" x1="45.8838" y1="25.4798" x2="45.8838" y2="50.9596" gradientUnits="userSpaceOnUse">
<stop/>
<stop offset="1" stop-opacity="0.5"/>
</linearGradient>
<linearGradient id="paint2_linear_143_41" x1="58.0474" y1="25.4798" x2="58.0474" y2="50.9596" gradientUnits="userSpaceOnUse">
<stop/>
<stop offset="1" stop-opacity="0.5"/>
</linearGradient>
<linearGradient id="paint3_linear_143_41" x1="30.885" y1="25.4798" x2="30.885" y2="50.9596" gradientUnits="userSpaceOnUse">
<stop/>
<stop offset="1" stop-opacity="0.5"/>
</linearGradient>
</defs>
</svg>
