<svg width="160" height="41" viewBox="0 0 160 41" fill="none" xmlns="http://www.w3.org/2000/svg">
<path fill-rule="evenodd" clip-rule="evenodd" d="M10.2969 26.985H0.539276V36.7426H10.2969V26.985ZM3.05176e-05 26.4458V37.2819H10.8361V26.4458H3.05176e-05Z" fill="black"/>
<path fill-rule="evenodd" clip-rule="evenodd" d="M23.3002 26.985H12.8202V36.7426H23.3002V26.985ZM12.2809 26.4458V37.2819H23.8394V26.4458H12.2809Z" fill="black"/>
<path fill-rule="evenodd" clip-rule="evenodd" d="M36.3031 26.985H25.8232V36.7426H36.3031V26.985ZM25.2839 26.4458V37.2819H36.8424V26.4458H25.2839Z" fill="black"/>
<path fill-rule="evenodd" clip-rule="evenodd" d="M10.2969 13.9816H0.539276V24.4616H10.2969V13.9816ZM3.05176e-05 13.4424V25.0009H10.8361V13.4424H3.05176e-05Z" fill="black"/>
<path fill-rule="evenodd" clip-rule="evenodd" d="M23.3002 13.9816H12.8202V24.4616H23.3002V13.9816ZM12.2809 13.4424V25.0009H23.8394V13.4424H12.2809Z" fill="black"/>
<path d="M25.2839 13.4424H36.8424V25.0009H25.2839V13.4424Z" fill="black"/>
<path fill-rule="evenodd" clip-rule="evenodd" d="M36.3031 13.9816H25.8232V24.4616H36.3031V13.9816ZM25.2839 13.4424V25.0009H36.8424V13.4424H25.2839Z" fill="black"/>
<path d="M0 0.438965H10.8361V11.9974H0V0.438965Z" fill="black"/>
<path fill-rule="evenodd" clip-rule="evenodd" d="M10.2968 0.978211H0.539246V11.4582H10.2968V0.978211ZM0 0.438965V11.9974H10.8361V0.438965H0Z" fill="black"/>
<path fill-rule="evenodd" clip-rule="evenodd" d="M23.3002 0.978211H12.8202V11.4582H23.3002V0.978211ZM12.2809 0.438965V11.9974H23.8394V0.438965H12.2809Z" fill="black"/>
<path fill-rule="evenodd" clip-rule="evenodd" d="M36.3031 0.978211H25.8232V11.4582H36.3031V0.978211ZM25.2839 0.438965V11.9974H36.8424V0.438965H25.2839Z" fill="black"/>
<path d="M121.415 35.8369H118.442V30.1014C118.442 28.888 118.378 28.1049 118.251 27.7522C118.124 27.3924 117.916 27.1137 117.627 26.9162C117.345 26.7186 117.002 26.6199 116.6 26.6199C116.085 26.6199 115.623 26.761 115.214 27.0432C114.805 27.3254 114.523 27.6993 114.368 28.1649C114.219 28.6305 114.145 29.4912 114.145 30.7469V35.8369H111.172V24.5987H113.934V26.2495C114.914 24.9797 116.149 24.3447 117.637 24.3447C118.294 24.3447 118.893 24.4647 119.436 24.7045C119.98 24.9373 120.389 25.2372 120.664 25.604C120.946 25.9708 121.14 26.3871 121.246 26.8527C121.359 27.3183 121.415 27.985 121.415 28.8527V35.8369Z" fill="black"/>
<path d="M96.8019 36.5776L100.199 36.9903C100.255 37.3854 100.386 37.657 100.59 37.8052C100.873 38.0168 101.317 38.1226 101.924 38.1226C102.7 38.1226 103.282 38.0062 103.67 37.7734C103.931 37.6182 104.128 37.3678 104.262 37.0221C104.354 36.7752 104.4 36.3201 104.4 35.657V34.0168C103.511 35.2302 102.389 35.8369 101.035 35.8369C99.5251 35.8369 98.3293 35.1984 97.4474 33.9215C96.7561 32.9127 96.4104 31.657 96.4104 30.1543C96.4104 28.2707 96.8619 26.8315 97.7649 25.8368C98.675 24.8421 99.8037 24.3447 101.151 24.3447C102.541 24.3447 103.687 24.955 104.59 26.1754V24.5987H107.373V34.6834C107.373 36.0097 107.264 37.0009 107.045 37.657C106.827 38.3131 106.52 38.8281 106.125 39.202C105.73 39.5759 105.201 39.8687 104.537 40.0803C103.881 40.292 103.049 40.3978 102.04 40.3978C100.135 40.3978 98.7843 40.0697 97.9871 39.4136C97.1899 38.7646 96.7914 37.9392 96.7914 36.9374C96.7914 36.8387 96.7949 36.7187 96.8019 36.5776ZM99.458 29.985C99.458 31.1772 99.6873 32.052 100.146 32.6094C100.611 33.1596 101.183 33.4348 101.86 33.4348C102.587 33.4348 103.201 33.1526 103.701 32.5882C104.202 32.0168 104.453 31.1737 104.453 30.0591C104.453 28.895 104.213 28.0308 103.733 27.4664C103.253 26.9021 102.647 26.6199 101.913 26.6199C101.201 26.6199 100.611 26.8985 100.146 27.4559C99.6873 28.0061 99.458 28.8492 99.458 29.985Z" fill="black"/>
<path d="M90.1785 23.0746V20.3232H93.152V23.0746H90.1785ZM90.1785 35.8366V24.5984H93.152V35.8366H90.1785Z" fill="black"/>
<path d="M76.2008 32.6305L79.185 32.1755C79.3119 32.754 79.5694 33.1949 79.9575 33.4982C80.3455 33.7945 80.8887 33.9427 81.5871 33.9427C82.3561 33.9427 82.9346 33.8016 83.3226 33.5194C83.5836 33.3219 83.7141 33.0573 83.7141 32.7258C83.7141 32.5 83.6436 32.3131 83.5025 32.1649C83.3543 32.0238 83.0227 31.8933 82.5077 31.7734C80.1091 31.2443 78.5888 30.761 77.9469 30.3236C77.058 29.7169 76.6135 28.8739 76.6135 27.7945C76.6135 26.8209 76.998 26.0026 77.767 25.3394C78.5359 24.6763 79.7282 24.3447 81.3437 24.3447C82.8816 24.3447 84.0245 24.5952 84.7723 25.0961C85.5201 25.5969 86.0351 26.3377 86.3173 27.3183L83.513 27.8368C83.3931 27.3994 83.1638 27.0643 82.8252 26.8315C82.4936 26.5987 82.0174 26.4823 81.3966 26.4823C80.6135 26.4823 80.0527 26.5917 79.7141 26.8104C79.4883 26.9656 79.3754 27.1666 79.3754 27.4135C79.3754 27.6252 79.4742 27.8051 79.6717 27.9532C79.9398 28.1508 80.864 28.4294 82.4442 28.7892C84.0316 29.149 85.1392 29.5899 85.767 30.112C86.3878 30.6411 86.6983 31.3783 86.6983 32.3236C86.6983 33.3536 86.2679 34.239 85.4072 34.9797C84.5466 35.7205 83.2732 36.0909 81.5871 36.0909C80.0562 36.0909 78.8428 35.7805 77.9469 35.1596C77.058 34.5388 76.4759 33.6958 76.2008 32.6305Z" fill="black"/>
<path d="M70.8253 32.2601L73.7883 32.7575C73.4073 33.8439 72.8042 34.6729 71.9788 35.2443C71.1604 35.8087 70.1339 36.0909 68.8994 36.0909C66.9452 36.0909 65.499 35.4524 64.5607 34.1755C63.82 33.1526 63.4496 31.8615 63.4496 30.3025C63.4496 28.44 63.9364 26.9832 64.9099 25.932C65.8835 24.8738 67.1145 24.3447 68.6031 24.3447C70.275 24.3447 71.5943 24.8985 72.5608 26.0061C73.5273 27.1067 73.9894 28.7963 73.947 31.0749H66.4972C66.5184 31.9568 66.7583 32.6446 67.2168 33.1385C67.6754 33.6252 68.2468 33.8686 68.9311 33.8686C69.3967 33.8686 69.7883 33.7416 70.1057 33.4877C70.4232 33.2337 70.6631 32.8245 70.8253 32.2601ZM70.9946 29.2548C70.9735 28.3941 70.7512 27.7416 70.328 27.2971C69.9047 26.8456 69.3897 26.6199 68.783 26.6199C68.1339 26.6199 67.5978 26.8562 67.1745 27.3289C66.7512 27.8015 66.5431 28.4435 66.5501 29.2548H70.9946Z" fill="black"/>
<path d="M47.7994 20.3232H53.5244C54.8154 20.3232 55.7995 20.422 56.4768 20.6195C57.3868 20.8876 58.1664 21.3638 58.8154 22.0481C59.4644 22.7324 59.9583 23.5719 60.2969 24.5667C60.6355 25.5543 60.8048 26.7748 60.8048 28.2281C60.8048 29.505 60.6461 30.6055 60.3287 31.5297C59.9406 32.6585 59.3868 33.572 58.6673 34.2705C58.124 34.7996 57.3904 35.2123 56.4662 35.5086C55.7748 35.7273 54.8506 35.8366 53.6937 35.8366H47.7994V20.3232ZM50.9317 22.9476V33.2228H53.2704C54.1452 33.2228 54.7766 33.1734 55.1646 33.0747C55.6725 32.9477 56.0923 32.7325 56.4239 32.4292C56.7625 32.1258 57.0376 31.6285 57.2493 30.9371C57.4609 30.2387 57.5667 29.2898 57.5667 28.0905C57.5667 26.8912 57.4609 25.9706 57.2493 25.3286C57.0376 24.6866 56.7413 24.1857 56.3604 23.8259C55.9794 23.4661 55.4962 23.2227 54.9106 23.0958C54.4732 22.997 53.6161 22.9476 52.3392 22.9476H50.9317Z" fill="black"/>
<path d="M156.492 12.0326L159.455 12.53C159.074 13.6164 158.471 14.4453 157.646 15.0168C156.827 15.5811 155.801 15.8633 154.566 15.8633C152.612 15.8633 151.166 15.2249 150.228 13.948C149.487 12.925 149.116 11.634 149.116 10.0749C149.116 8.21246 149.603 6.75566 150.577 5.7045C151.55 4.64629 152.781 4.11719 154.27 4.11719C155.942 4.11719 157.261 4.67098 158.228 5.77858C159.194 6.87912 159.656 8.56873 159.614 10.8474H152.164C152.185 11.7292 152.425 12.4171 152.884 12.9109C153.342 13.3977 153.914 13.6411 154.598 13.6411C155.064 13.6411 155.455 13.5141 155.773 13.2601C156.09 13.0062 156.33 12.597 156.492 12.0326ZM156.661 9.02728C156.64 8.16661 156.418 7.51404 155.995 7.06959C155.572 6.61809 155.057 6.39234 154.45 6.39234C153.801 6.39234 153.265 6.62867 152.841 7.10134C152.418 7.57401 152.21 8.21599 152.217 9.02728H156.661Z" fill="black"/>
<path d="M140.144 15.6093L135.615 4.37109H138.737L140.853 10.1066L141.467 12.022C141.629 11.5352 141.732 11.2142 141.774 11.059C141.873 10.7415 141.979 10.4241 142.091 10.1066L144.229 4.37109H147.287L142.822 15.6093H140.144Z" fill="black"/>
<path d="M130.156 2.84754V0.0961914H133.129V2.84754H130.156ZM130.156 15.6096V4.37136H133.129V15.6096H130.156Z" fill="black"/>
<path d="M116.177 12.403L119.161 11.9479C119.288 12.5264 119.546 12.9674 119.934 13.2707C120.322 13.567 120.865 13.7152 121.564 13.7152C122.333 13.7152 122.911 13.5741 123.299 13.2919C123.56 13.0943 123.691 12.8298 123.691 12.4982C123.691 12.2725 123.62 12.0855 123.479 11.9374C123.331 11.7963 122.999 11.6658 122.484 11.5458C120.086 11.0167 118.565 10.5335 117.923 10.0961C117.034 9.48937 116.59 8.64633 116.59 7.56695C116.59 6.5934 116.974 5.77505 117.743 5.11191C118.512 4.44876 119.705 4.11719 121.32 4.11719C122.858 4.11719 124.001 4.36763 124.749 4.86852C125.497 5.3694 126.012 6.11015 126.294 7.09076L123.49 7.60928C123.37 7.17189 123.14 6.83679 122.802 6.60398C122.47 6.37118 121.994 6.25477 121.373 6.25477C120.59 6.25477 120.029 6.36412 119.691 6.58282C119.465 6.73802 119.352 6.93908 119.352 7.186C119.352 7.39764 119.451 7.57754 119.648 7.72569C119.916 7.92322 120.84 8.20188 122.421 8.56167C124.008 8.92146 125.116 9.36238 125.744 9.88443C126.364 10.4135 126.675 11.1508 126.675 12.0961C126.675 13.1261 126.244 14.0115 125.384 14.7522C124.523 15.493 123.25 15.8633 121.564 15.8633C120.033 15.8633 118.819 15.5529 117.923 14.9321C117.034 14.3113 116.452 13.4682 116.177 12.403Z" fill="black"/>
<path d="M110.76 15.6094H107.786V4.37116H110.548V5.96906C111.021 5.2142 111.444 4.71684 111.818 4.47698C112.199 4.23712 112.629 4.11719 113.109 4.11719C113.786 4.11719 114.439 4.30414 115.066 4.67804L114.146 7.27066C113.645 6.94614 113.179 6.78388 112.749 6.78388C112.333 6.78388 111.98 6.90028 111.691 7.13309C111.402 7.35884 111.172 7.77154 111.003 8.37119C110.841 8.97085 110.76 10.2266 110.76 12.1384V15.6094Z" fill="black"/>
<path d="M101.491 12.0326L104.454 12.53C104.073 13.6164 103.47 14.4453 102.644 15.0168C101.826 15.5811 100.799 15.8633 99.5648 15.8633C97.6107 15.8633 96.1645 15.2249 95.2262 13.948C94.4854 12.925 94.1151 11.634 94.1151 10.0749C94.1151 8.21246 94.6018 6.75566 95.5754 5.7045C96.5489 4.64629 97.78 4.11719 99.2685 4.11719C100.941 4.11719 102.26 4.67098 103.226 5.77858C104.193 6.87912 104.655 8.56873 104.613 10.8474H97.1627C97.1839 11.7292 97.4237 12.4171 97.8823 12.9109C98.3408 13.3977 98.9123 13.6411 99.5966 13.6411C100.062 13.6411 100.454 13.5141 100.771 13.2601C101.089 13.0062 101.329 12.597 101.491 12.0326ZM101.66 9.02728C101.639 8.16661 101.417 7.51404 100.993 7.06959C100.57 6.61809 100.055 6.39234 99.4484 6.39234C98.7994 6.39234 98.2632 6.62867 97.84 7.10134C97.4167 7.57401 97.2086 8.21599 97.2156 9.02728H101.66Z" fill="black"/>
<path d="M74.6132 4.37116H77.354V5.90556C78.3346 4.71331 79.5022 4.11719 80.8567 4.11719C81.5762 4.11719 82.2006 4.26534 82.7297 4.56164C83.2588 4.85793 83.6927 5.30591 84.0313 5.90556C84.5251 5.30591 85.0578 4.85793 85.6292 4.56164C86.2006 4.26534 86.8109 4.11719 87.4599 4.11719C88.2853 4.11719 88.9837 4.2865 89.5552 4.62513C90.1266 4.9567 90.5534 5.44701 90.8356 6.09604C91.0402 6.57576 91.1425 7.35178 91.1425 8.4241V15.6094H88.1689V9.18602C88.1689 8.07137 88.0666 7.35178 87.862 7.02727C87.5869 6.60398 87.1636 6.39234 86.5922 6.39234C86.1759 6.39234 85.7844 6.51933 85.4176 6.7733C85.0507 7.02727 84.7862 7.40117 84.6239 7.895C84.4616 8.38178 84.3805 9.15427 84.3805 10.2125V15.6094H81.4069V9.45057C81.4069 8.35708 81.354 7.65161 81.2482 7.33415C81.1424 7.01668 80.9766 6.78035 80.7508 6.62515C80.5321 6.46994 80.2323 6.39234 79.8514 6.39234C79.3928 6.39234 78.9801 6.5158 78.6133 6.76271C78.2464 7.00963 77.9819 7.36589 77.8196 7.83151C77.6644 8.29712 77.5868 9.06961 77.5868 10.149V15.6094H74.6132V4.37116Z" fill="black"/>
<path d="M54.4658 4.37116H57.2066V5.90556C58.1872 4.71331 59.3548 4.11719 60.7093 4.11719C61.4288 4.11719 62.0532 4.26534 62.5823 4.56164C63.1114 4.85793 63.5453 5.30591 63.8839 5.90556C64.3777 5.30591 64.9104 4.85793 65.4818 4.56164C66.0532 4.26534 66.6635 4.11719 67.3125 4.11719C68.1379 4.11719 68.8363 4.2865 69.4078 4.62513C69.9792 4.9567 70.406 5.44701 70.6882 6.09604C70.8928 6.57576 70.9951 7.35178 70.9951 8.4241V15.6094H68.0215V9.18602C68.0215 8.07137 67.9192 7.35178 67.7146 7.02727C67.4395 6.60398 67.0162 6.39234 66.4448 6.39234C66.0285 6.39234 65.637 6.51933 65.2702 6.7733C64.9033 7.02727 64.6388 7.40117 64.4765 7.895C64.3142 8.38178 64.2331 9.15427 64.2331 10.2125V15.6094H61.2595V9.45057C61.2595 8.35708 61.2066 7.65161 61.1008 7.33415C60.995 7.01668 60.8292 6.78035 60.6034 6.62515C60.3847 6.46994 60.0849 6.39234 59.704 6.39234C59.2454 6.39234 58.8327 6.5158 58.4659 6.76271C58.099 7.00963 57.8345 7.36589 57.6722 7.83151C57.517 8.29712 57.4394 9.06961 57.4394 10.149V15.6094H54.4658V4.37116Z" fill="black"/>
<path d="M47.7152 15.6096V0.0961914H50.8475V15.6096H47.7152Z" fill="black"/>
</svg>
