<svg width="201" height="50" viewBox="0 0 201 50" fill="none" xmlns="http://www.w3.org/2000/svg">
<path d="M14.2522 40.5572C14.2522 40.7918 14.3695 40.9091 14.4868 41.0264C14.8387 41.261 15.1906 41.8475 15.4252 41.8475C15.6598 41.8475 15.7771 41.6129 15.7771 41.3783C15.7771 41.1437 15.6598 41.0264 15.6598 40.7918C15.6598 40.5572 15.4252 40.5572 15.1906 40.3226C14.956 40.088 14.6041 39.9707 14.3695 40.2053L14.2522 40.5572ZM16.3636 42.6686C16.129 42.1994 15.7771 42.1994 15.3079 41.9648C15.0733 41.8475 15.1906 41.8475 15.0733 41.7302C14.956 41.7302 14.8387 41.7302 14.8387 41.7302C14.2522 41.6129 13.6657 41.4956 13.1965 41.261C12.8446 41.1437 12.3754 41.0264 12.0235 41.0264C11.9062 41.0264 11.9062 41.0264 11.7889 41.0264C11.6716 41.1437 11.7889 41.261 11.7889 41.261C12.1408 41.4956 12.4927 41.6129 12.8446 41.6129L13.9003 41.8475C14.0176 41.8475 14.0176 41.8475 14.2522 41.8475C14.3695 41.8475 14.4868 41.8475 14.6041 41.8475C14.2522 42.1994 14.1349 42.1994 14.0176 42.1994C13.9003 42.1994 13.783 42.3167 13.6657 42.3167H13.0792H12.9619H12.8446C12.61 42.3167 12.3754 42.3167 12.0235 42.3167C11.5543 42.3167 11.5543 42.0821 11.437 42.6686C12.2581 43.4898 12.2581 42.9033 12.61 43.1379C12.61 43.3725 12.4927 43.2552 12.7273 43.6071C12.9619 43.959 13.1965 43.959 13.783 43.8417C14.0176 43.8417 14.1349 43.7244 14.2522 43.7244C14.7214 43.4898 15.3079 43.4898 15.4252 43.0206C15.5425 42.9033 15.5425 42.9033 15.4252 42.7859C15.3079 42.6686 15.1906 42.434 15.1906 42.3167C15.7771 42.434 16.129 43.2552 16.3636 42.6686ZM14.4868 42.9032L14.3695 43.0206C14.2522 43.1379 14.3695 43.0206 14.2522 43.1379C14.0176 43.1379 14.1349 43.2552 13.783 43.2552C13.6657 43.2552 13.5484 43.2552 13.5484 43.1379C13.6657 42.9033 13.6657 43.1379 14.2522 43.1379C14.2522 43.1379 14.2522 43.0205 14.4868 42.9032C14.6041 42.9032 14.4868 42.7859 14.7214 42.7859C14.6041 42.9033 14.6041 42.9032 14.4868 42.9032ZM22.8153 43.959C22.8153 43.8417 22.6979 43.8417 22.5806 43.8417C22.5806 43.8417 22.4633 43.8417 22.4633 43.959C22.346 44.1936 22.4633 44.1936 22.346 44.3109C22.2287 44.4282 22.2287 44.5455 22.1114 44.5455C21.9941 44.6628 21.8768 44.6628 21.7595 44.7801C21.7595 44.5455 21.7595 44.3109 21.8768 44.1936C22.1114 43.8417 21.9941 44.1936 22.2287 43.7244C22.346 43.4898 22.4633 43.2552 22.4633 42.9032C22.4633 42.7859 22.4633 42.5513 22.5806 42.434C22.5806 42.1994 22.346 41.7302 22.2287 41.7302C22.2287 41.9648 22.2287 42.1994 22.2287 42.5513C22.2287 42.9033 22.1114 43.0206 22.1114 43.2552C21.9941 43.6071 21.8768 43.959 21.7595 44.3109C21.6422 44.4282 21.7595 44.4282 21.6422 44.4282C21.5249 44.1936 21.7595 44.1936 21.8768 43.959C21.9941 43.7244 21.8768 43.6071 21.7595 43.6071C21.6422 43.6071 21.4076 43.6071 21.4076 43.7244C21.2903 43.8417 21.173 43.959 21.173 43.959C21.0557 44.0763 21.0557 44.1936 20.8211 44.1936C20.8211 44.0763 20.8211 43.959 20.7038 43.959C20.7038 43.8417 20.7038 43.8417 20.7038 43.7244C20.7038 43.6071 20.7038 43.6071 20.7038 43.4898C20.7038 43.3725 20.7038 43.2552 20.7038 43.1379V43.0206C20.5865 42.7859 20.3519 42.6686 20.1173 42.7859C20.1173 42.7859 20 42.7859 20 42.9032H19.8827H19.7654C19.5308 43.1379 19.4135 43.3725 19.2962 43.4898C19.0616 43.7244 18.9443 43.8417 18.7097 43.959C18.5924 44.0763 18.3578 44.1936 18.3578 44.3109H18.4751C18.7097 44.3109 18.5924 44.3109 18.5924 44.3109H18.7097C18.9443 44.3109 19.1789 44.0763 19.2962 44.1936C18.9443 44.4282 19.2962 44.4282 18.827 44.5455C18.7097 44.6628 18.7097 44.5455 18.5924 44.5455C18.3578 44.6628 18.2405 44.6628 18.0059 44.7801C17.7713 44.8974 17.654 44.8974 17.4194 45.0147C17.1848 45.0147 17.1848 45.0147 17.0674 44.8974C16.7155 45.132 16.9501 45.4839 17.0674 45.4839C17.4194 45.6012 18.1232 45.132 18.4751 45.0147C18.5924 45.0147 18.7097 44.8974 18.827 44.8974C19.0616 44.7801 19.0616 44.7801 19.1789 44.8974C19.0616 45.132 18.9443 45.2493 18.7097 45.3666C18.5924 45.4839 18.5924 45.4839 18.4751 45.6012C18.3578 45.7185 18.3578 45.8358 18.3578 45.9531C18.4751 46.0704 18.5924 46.0704 18.7097 46.1877C18.9443 46.1877 18.9443 46.0704 19.0616 45.9531C19.1789 46.0704 19.0616 46.305 19.1789 46.4223C19.2962 46.5396 19.5308 46.5396 19.6481 46.4223L20.1173 45.0147C20.1173 44.8974 20.1173 45.0147 20.1173 44.8974C20.2346 44.5455 20.2346 44.5455 20.5865 44.3109C20.7038 44.1936 20.8211 44.0763 20.9384 44.0763C20.9384 44.4282 20.7038 44.4282 20.7038 44.7801C20.7038 45.132 20.3519 45.0147 20.4692 45.4839C20.7038 45.6012 20.7038 45.6012 20.8211 45.4839C20.9384 45.3666 21.0557 45.3666 21.2903 45.2493C21.2903 45.6012 21.173 46.0704 21.0557 46.4223C20.9384 46.8915 21.173 46.5396 20.8211 47.2434C20.5865 47.5953 20.5865 47.7126 20.8211 47.8299C21.0557 47.9472 21.2903 47.9472 21.4076 47.478L21.5249 46.5396C21.7595 46.1877 21.8768 45.7185 21.8768 45.2493C21.8768 44.8974 22.1114 44.8974 22.4633 44.6628C22.8153 44.4282 23.0499 44.4282 22.8153 43.959ZM21.173 45.0147V44.8974C21.173 44.7801 21.173 44.7801 21.2903 44.7801C21.4076 44.7801 21.2903 45.0147 21.173 45.0147ZM30.2053 45.8358L30.4399 45.7185C30.2053 45.7185 29.9707 45.6012 29.7361 45.6012L30.2053 44.7801C30.2053 44.6628 30.2053 44.6628 30.2053 44.5455C30.2053 44.4282 30.088 44.3109 29.8534 44.3109L29.3842 44.5455H29.2669V44.3109C29.2669 44.1936 29.2669 44.1936 29.2669 44.0763C29.6188 43.8417 29.8534 43.7244 30.2053 43.6071C30.4399 43.3725 30.3226 43.2552 30.2053 43.1379C30.088 43.0206 29.9707 43.1379 29.7361 43.1379L29.2669 43.3725L29.1496 42.9032C29.0323 42.7859 29.0323 42.7859 28.915 42.7859H28.6804L28.4457 42.9032C28.3284 42.9032 28.3284 43.0206 28.3284 43.0206C28.3284 43.0206 28.3284 43.0206 28.3284 43.1379C28.3284 43.1379 28.4457 43.8417 28.4457 43.959V44.0763V44.1936L28.0938 44.4282C27.9765 44.4282 27.9765 44.5455 27.9765 44.5455C27.9765 44.5455 27.9765 44.6628 28.0938 44.6628C28.2111 44.6628 28.3284 44.6628 28.4457 44.6628C28.4457 44.6628 28.5631 44.5455 28.5631 44.4282L28.6804 44.3109V44.6628C28.6804 44.6628 28.6804 44.6628 28.6804 44.7801C28.6804 45.0147 27.9765 45.2493 27.9765 45.2493C27.9765 45.2493 27.8592 45.2493 27.9765 45.3666C28.0938 45.4839 28.3284 45.4839 28.4457 45.6012C28.5631 45.6012 28.6804 45.7185 28.7977 45.7185C28.6804 45.8358 28.5631 45.9531 28.4457 45.9531L27.5073 45.8358H27.39V45.9531H27.5073L27.9765 46.0704L28.4457 46.305H28.0938L28.2111 46.4223H28.3284C28.4458 46.5396 28.5631 46.5396 28.6804 46.4223C28.7977 46.305 28.7977 46.305 28.915 46.1877L29.0323 45.9531H29.2669L30.2053 46.0704V45.8358ZM29.1496 45.3666L29.0323 45.4839C28.915 45.4839 28.7977 45.4839 28.7977 45.4839C28.7977 45.4839 28.6804 45.4839 28.6804 45.3666C28.915 45.2493 29.1496 45.132 29.3842 45.0147C29.2669 45.132 29.2669 45.2493 29.1496 45.3666ZM29.1496 45.7185L29.2669 46.1877L29.3842 46.305C29.6188 46.4223 29.8534 46.5396 30.088 46.5396C30.2053 46.5396 30.3226 46.6569 30.5572 46.6569H30.6745C30.6745 46.6569 30.9091 46.6569 30.9091 46.5396C30.9091 46.5396 30.9091 46.305 31.1437 46.1877C31.3783 46.0704 31.3783 46.0704 31.3783 45.9531C31.3783 45.6012 30.5572 45.7185 30.4399 45.7185L29.2669 45.6012L29.1496 45.7185ZM27.2727 45.2493C27.39 45.0147 27.6246 44.8974 27.7419 44.5455C27.7419 44.6628 27.2727 44.8974 27.2727 45.0147C27.2727 44.8974 27.2727 44.7801 27.2727 44.6628V44.5455H27.39H27.5073H27.6246C27.9765 44.3109 27.6246 44.1936 27.6246 44.1936C27.6246 44.1936 27.5073 44.1936 27.1554 44.1936V43.8417V43.7244C27.1554 43.7244 27.1554 43.4898 27.0381 43.4898C26.8035 43.3725 26.5689 43.3725 26.3343 43.4898C26.217 43.6071 26.217 43.6071 26.3343 43.7244C26.3343 43.7244 26.4516 44.4282 26.4516 44.5455C26.3343 44.6628 26.217 44.6628 26.0997 44.7801C25.9824 44.7801 25.9824 44.8974 25.8651 45.0147C25.7478 45.0147 25.7478 45.132 25.6305 45.132H25.5132C25.5132 45.132 25.6305 45.3666 25.7478 45.3666C25.7478 45.3666 25.7478 45.3666 25.8651 45.3666H25.9824C26.0997 45.2493 26.0997 45.2493 26.217 45.132C26.3343 45.0147 26.4516 45.0147 26.5689 44.8974C26.5689 44.8974 26.5689 44.8974 26.5689 45.0147C26.5689 45.132 26.5689 45.3666 26.5689 45.4839L25.8651 46.1877C25.7478 46.305 25.7478 46.305 25.7478 46.4223C25.7478 46.5396 25.8651 46.5396 25.8651 46.6569C25.8651 46.7742 25.9824 46.7742 26.0997 46.7742C26.217 46.7742 26.217 46.7742 26.217 46.6569C26.217 46.6569 26.4516 46.1877 26.4516 46.0704C26.5689 46.1877 26.6862 46.1877 26.8035 46.305C26.9208 46.4223 26.9208 46.5396 26.9208 46.5396C26.9208 46.6569 27.0381 46.7742 27.1554 46.7742C27.39 46.7742 27.6246 46.4223 27.6246 46.0704C27.6246 45.9531 27.6246 45.8358 27.6246 45.7185V45.6012V45.4839L27.5073 44.7801C27.39 44.7801 27.39 44.8974 27.39 44.8974C27.1554 45.2493 27.1554 45.3666 27.2727 45.2493ZM26.8035 46.4223V46.5396C26.6862 46.4223 26.5689 46.4223 26.4516 46.4223L26.6862 45.9531L26.8035 46.4223ZM36.4223 42.0821H36.305L36.1877 42.1994C35.4839 43.0206 36.7742 42.7859 37.2434 42.7859H37.3607C37.9472 42.7859 37.9472 43.0206 38.0645 42.5513C38.1818 42.1994 37.8299 41.9648 37.7126 41.9648C37.478 41.7302 37.478 41.6129 37.1261 41.7302C37.0088 41.7302 36.8915 41.8475 36.7742 41.8475C36.4223 41.9648 36.5396 41.9648 36.4223 42.0821ZM35.4839 40.088C35.6012 40.3226 35.6012 40.3226 35.7185 40.4399C35.8358 40.5572 35.6012 40.6745 35.6012 40.7918C35.6012 40.9091 35.6012 41.0264 35.3666 41.1437C35.132 40.9091 35.2493 40.3226 35.132 40.088C34.8974 39.5015 34.3109 39.6188 34.3109 39.9707C34.3109 40.3226 34.6628 40.4399 34.8974 41.0264C35.0147 41.3783 35.0147 41.7302 34.8974 42.0821C34.5455 42.5513 34.1936 43.0206 33.7243 43.3725C33.1378 43.7244 33.7243 44.0763 34.0762 43.959C34.3109 43.8417 34.4282 43.7244 34.6628 43.6071C34.8974 43.3725 35.2493 42.6686 35.4839 42.7859C35.4839 42.6686 35.7185 42.9033 35.4839 42.7859C35.4839 42.9033 35.4839 42.9033 35.4839 43.0206C35.4839 43.2552 35.3666 43.4898 35.2493 43.6071L33.9589 44.6628C33.8416 44.7801 33.7243 44.7801 33.7243 44.8974C33.7243 45.0147 33.7243 44.8974 33.8416 44.8974C33.9589 44.7801 34.1936 44.6628 34.4282 44.6628C34.8974 44.5455 35.2493 44.3109 35.3666 43.959C35.9531 43.1379 35.7185 42.9033 35.6012 42.1994C35.6012 42.0821 35.6012 41.8475 35.6012 41.7302L36.1877 40.5572C36.305 40.2053 36.6569 39.9707 36.1877 39.7361C36.0704 39.8534 35.9531 39.8534 35.8358 39.8534C35.7185 39.8534 35.6012 39.9707 35.4839 40.088ZM24.2229 12.7566C23.5191 13.2258 22.8153 13.8123 22.346 14.5161C22.1114 14.9854 22.2287 15.22 23.0499 14.7508C24.1056 14.0469 25.1613 13.5777 26.3343 13.1085C27.6246 12.6393 28.915 12.4047 30.2053 12.1701C30.3226 12.1701 30.3226 12.2874 30.2053 12.4047C26.8035 15.5719 26.4516 17.9179 27.39 18.2698C28.0938 18.3871 28.6804 18.3871 29.2669 18.0352C29.9707 17.8006 30.6745 17.566 31.3783 17.4487C33.1378 17.3314 33.9589 20.8505 31.9648 24.1349C30.7918 25.7771 29.3842 27.1848 27.7419 28.2405C27.6246 28.2405 27.6246 28.1232 27.6246 27.8886C27.6246 27.654 28.6804 25.4252 27.8592 25.0733C27.7419 25.0733 27.39 25.0733 27.0381 25.8945C26.6862 26.8329 26.3343 27.0675 26.217 26.9502C26.0997 26.8329 26.0997 26.7156 26.0997 26.481C26.0997 26.2464 26.0997 26.1291 26.0997 26.2464C26.0997 26.3637 25.044 27.4194 24.8094 27.3021C24.6921 27.3021 24.6921 27.1848 24.6921 27.0675C24.6921 26.9502 24.8094 26.7156 24.8094 26.7156C23.7537 27.654 22.5806 28.3578 21.173 28.7097C20.9384 28.7097 20.7038 28.7097 20.4692 28.7097C20.3519 28.7097 20.3519 28.5924 20.4692 28.4751C21.6422 27.8886 22.698 26.9502 23.5191 25.7771C23.7537 25.3079 23.7537 25.0733 23.7537 24.956C23.5191 24.6041 22.6979 24.956 22.1114 25.1906C21.2903 25.6598 20.4692 25.8944 19.5308 26.1291C18.1232 26.3637 16.5982 25.8945 15.6598 24.8387C14.8387 23.783 14.4868 22.4927 14.7214 21.2024C15.1906 17.3314 18.827 14.9854 20.1173 14.1642C21.4076 13.3431 22.698 12.7566 24.1056 12.2874C24.4575 12.4047 24.4575 12.522 24.2229 12.7566ZM23.871 35.2786V30.8211C23.871 30.4692 23.6364 30.2346 23.2845 30.2346C21.7595 30.2346 20.2346 30 18.7097 29.7654C18.5924 29.7654 18.4751 29.7654 18.3578 29.8827C18.2405 30 18.3578 30.1173 18.3578 30.2346C18.3578 30.3519 18.5924 31.0557 18.5924 31.0557C18.7097 31.5249 19.4135 31.6423 19.8827 31.7596L21.8768 32.2288C22.8153 32.4634 23.0499 33.1672 23.0499 34.1056V34.9267C23.0499 35.6305 22.9326 36.217 22.4633 36.217C21.9941 36.217 21.2903 35.6305 21.0557 35.044V34.8094L20.4692 33.5191C20.4692 33.4018 20.3519 33.4018 20.3519 33.2845C20.2346 33.2845 20.2346 33.1672 20.1173 33.1672H19.4135L20.3519 36.217C20.4692 36.9208 20.8211 37.5074 21.2903 37.9766C22.1114 38.5631 23.1672 38.915 24.1056 38.7977C25.1613 38.915 26.0997 38.5631 26.9208 37.8593C27.39 37.3901 27.7419 36.8035 27.8592 36.0997L28.6804 33.0499H28.0938C27.9765 33.0499 27.8592 33.0499 27.8592 33.1672C27.8592 33.2845 27.7419 33.2845 27.7419 33.4018L27.1554 34.6921V34.8094C26.9208 35.3959 26.4516 35.9824 25.7478 35.9824C25.044 35.9824 25.1613 35.5132 25.1613 34.6921V33.871C25.1613 32.9326 25.3959 32.1115 26.3343 31.9942L28.3284 31.5249C28.7977 31.4076 29.5015 31.2903 29.6188 30.8211C29.6188 30.8211 29.8534 30.2346 29.8534 30C29.8534 29.7654 29.9707 29.7654 29.8534 29.6481C29.7361 29.5308 29.6188 29.5308 29.5015 29.5308C27.9765 29.8827 26.4516 30 24.9267 30C24.5748 30 24.3402 30.2346 24.3402 30.5865V35.1613C24.3402 35.2786 24.2229 35.3959 24.2229 35.3959C24.1056 35.3959 23.9883 35.3959 23.871 35.2786ZM39.2375 39.8534L39.3548 39.2669C39.3548 38.7977 39.4721 39.0323 39.4721 38.6804C39.4721 38.3285 39.5894 38.3285 39.7067 38.0939C39.8241 37.8593 39.8241 37.9766 39.8241 37.8593C39.8241 37.742 39.824 37.742 39.9413 37.6247C40.0587 38.0939 39.7067 38.2112 39.9413 38.4458C39.9413 38.5631 39.8241 38.6804 39.8241 38.915C39.8241 39.1496 39.7067 39.2669 39.5894 39.3842C39.3548 39.7361 39.3548 39.6188 39.4721 39.7361C39.7067 39.7361 39.824 39.3842 39.9413 39.2669C40.0587 39.1496 40.176 38.7977 40.176 38.7977C40.2933 38.5631 40.2933 38.4458 40.4106 38.2112C40.5279 38.5631 40.176 39.0323 40.176 39.1496C40.176 39.2669 40.4106 39.3842 40.4106 39.3842C40.4106 39.3842 40.4106 39.3842 40.2933 39.5015L39.9413 39.9707C39.824 40.088 39.4721 40.4399 39.3548 40.5572C39.5894 40.9091 40.5279 39.6188 40.8798 39.6188C40.8798 39.6188 40.8798 39.6188 40.9971 39.7361V39.8534C41.1144 40.088 40.9971 40.2053 40.8798 40.4399C40.9971 40.5572 40.8798 40.4399 40.9971 40.4399C41.1144 40.4399 40.9971 40.5572 41.1144 40.6745C41.4663 40.6745 41.8182 40.5572 41.7009 40.088C41.7009 39.9707 41.7009 39.9707 41.7009 39.8534C41.5836 39.6188 41.349 39.3842 41.349 39.1496C41.9355 38.6804 42.522 38.5631 42.0528 38.0939C41.9355 37.9766 41.9355 38.0939 41.9355 37.9766C41.9355 37.8593 41.9355 37.742 41.8182 37.8593C41.7009 37.9766 41.5836 38.0939 41.349 38.2112C41.2317 38.3285 40.9971 38.5631 40.8798 38.6804C40.7625 38.6804 40.6452 38.5631 40.6452 38.4458V37.6247C40.6452 37.5074 40.5279 37.3901 40.4106 37.2727C40.176 37.2727 40.176 37.3901 40.0587 37.3901C39.9414 37.3901 40.0587 37.1554 40.176 37.0381C40.2933 36.9208 40.2933 36.8035 40.4106 36.6862C40.5279 36.5689 40.4106 36.5689 40.4106 36.5689V36.4516C40.4106 36.4516 40.4106 36.0997 40.176 36.217L40.2933 36.3343C40.176 36.4516 40.176 36.4516 40.0587 36.5689C39.9414 36.9208 39.7067 37.3901 39.4721 37.742C39.3548 37.6247 39.4721 37.742 39.4721 37.6247V37.2727C39.5894 37.0381 39.7067 36.6862 39.7067 36.3343C39.7067 36.0997 39.8241 36.0997 39.7067 35.8651C39.5894 35.6305 39.4721 35.8651 39.3548 35.8651C39.2375 35.6305 39.7067 35.5132 39.2375 35.3959H39.0029C38.8856 35.2786 39.0029 35.1613 38.7683 35.1613C38.4164 35.3959 38.651 35.6305 38.7683 35.8651C38.8856 36.0997 38.7683 35.9824 38.7683 36.0997C38.7683 36.217 38.7683 36.0997 38.7683 36.3343C38.7683 36.3343 38.7683 36.3343 38.7683 36.4516C38.7683 36.5689 38.7683 36.5689 38.651 36.5689C38.5337 36.5689 38.651 36.4516 38.4164 36.4516C38.1818 36.4516 38.0645 36.8035 38.1818 36.9208C38.0645 36.9208 38.0645 37.0381 37.9472 37.0381V37.1554C37.8299 37.3901 38.1818 37.742 38.2991 37.9766C38.4164 38.2112 38.4164 38.2112 38.5337 38.3285C38.651 38.3285 38.7683 38.3285 38.8856 38.3285C39.1202 38.3285 39.1202 38.2112 39.1202 38.0939C39.1202 37.9766 39.3548 37.9766 39.2375 37.8593C39.1202 37.742 39.1202 37.6247 39.2375 37.6247V37.742C39.2375 37.9766 39.1202 38.2112 39.1202 38.5631C39.1202 38.7977 38.8856 39.2669 38.8856 39.3842C38.7683 39.6188 38.8856 39.8534 39.1202 39.9707C39.2375 39.8534 39.2375 39.8534 39.2375 39.8534ZM39.2375 37.1554C39.2375 37.0381 39.2375 36.9208 39.3548 36.8035C39.3548 36.9208 39.3548 37.0381 39.2375 37.1554ZM40.0587 37.742C40.0587 37.5074 40.0587 37.5074 40.2933 37.3901C40.2933 37.5074 40.2933 37.6247 40.176 37.742C40.0587 37.8593 40.176 37.9766 39.9413 38.0939V37.8593C40.0587 37.742 40.0587 37.742 40.0587 37.742ZM8.3871 38.5631C8.26979 38.6804 8.2698 38.6804 8.15249 38.6804C8.03519 38.6804 7.91789 38.6804 7.80059 38.6804H7.56598C7.44868 38.6804 7.44868 38.6804 7.33138 38.6804C7.21408 38.6804 7.09678 38.915 7.09678 39.1496C7.09678 39.3842 7.09678 39.5015 7.44868 39.6188C7.80059 39.7361 8.03519 39.8534 8.15249 39.9707C8.2698 40.088 8.15249 40.2053 8.03519 40.088C7.91789 39.9707 8.03519 40.088 7.91789 40.088C7.80059 40.3226 7.91789 40.2053 7.80059 40.4399L8.03519 40.6745C8.5044 40.4399 8.2698 39.9707 8.739 40.088C8.85631 40.088 8.97361 40.088 9.09091 40.088C9.20821 40.4399 8.97361 40.3226 8.97361 40.6745C8.97361 41.0264 9.20821 41.1437 9.20821 41.1437C9.44282 41.1437 9.56012 40.7918 9.67742 40.6745L10.1466 40.088C10.2639 39.9707 10.3812 39.8534 10.6158 39.5015C10.7331 39.3842 10.7331 39.2669 10.8504 39.2669C10.9677 39.1496 11.085 39.0323 11.085 38.915C11.2023 38.7977 11.2023 38.6804 11.3196 38.6804C11.437 38.6804 11.437 38.4458 11.437 38.3285C11.3196 38.0939 11.3196 37.8593 10.9677 37.8593C10.8504 37.8593 10.7331 37.8593 10.6158 37.8593H10.0293C9.91202 37.8593 9.79472 37.8593 9.67742 37.8593C9.67742 37.742 9.79472 37.6247 9.91202 37.5074C10.0293 37.5074 10.0293 37.5074 10.1466 37.3901C10.6158 37.3901 10.2639 37.3901 10.7331 37.3901C10.8504 37.3901 10.9677 37.3901 10.9677 37.2727C11.085 37.0381 10.9677 37.1554 10.9677 36.8035C10.9677 36.6862 10.9677 36.6862 11.085 36.6862C11.2023 36.5689 11.3196 36.5689 11.437 36.3343C11.3196 35.8651 11.085 35.9824 11.085 35.9824L10.4985 36.5689C10.1466 36.8035 9.56012 36.5689 9.20821 36.4516C8.85631 36.3343 9.09091 36.4516 8.97361 36.4516L8.2698 36.217C8.15249 36.217 8.15249 36.217 8.03519 36.217C7.91789 36.217 7.91789 36.217 7.80059 36.3343C7.80059 36.4516 7.91789 36.5689 8.03519 36.6862C8.3871 36.8035 8.85631 37.0381 9.20821 37.2727C9.20821 37.2727 9.20821 37.2728 9.20821 37.3901C9.20821 37.3901 8.97361 37.5074 8.739 37.5074C8.5044 37.5074 8.6217 37.3901 8.3871 37.5074C8.15249 37.6247 8.15249 37.6247 8.03519 37.742H7.91789C7.80059 37.742 7.91789 37.742 7.68329 37.742C7.33138 37.742 7.44868 37.8593 7.21408 37.8593C7.09677 37.8593 6.97947 37.8593 6.86217 37.8593C6.74487 37.8593 6.74487 37.8593 6.62757 37.8593C6.51026 37.8593 6.04106 38.0939 6.39296 38.4458C6.74487 38.7977 6.62757 38.2112 7.80059 38.2112C7.91789 38.2112 8.03519 38.2112 8.15249 38.3285C8.15249 38.3285 8.15249 38.4458 8.2698 38.4458C8.2698 38.4458 8.3871 38.4458 8.3871 38.5631ZM7.80059 39.2669H8.5044C8.6217 39.2669 8.739 39.2669 8.739 39.3842C8.739 39.5015 8.739 39.5015 8.6217 39.5015C8.3871 39.5015 7.80059 39.2669 7.80059 39.2669ZM8.97361 38.4458L9.09091 38.2112H9.56012C9.67742 38.2112 9.91202 38.2112 10.0293 38.2112C10.1466 38.2112 9.91202 38.3285 9.79472 38.3285C9.67742 38.3285 9.67742 38.4458 9.56012 38.4458C9.32551 38.4458 9.09091 38.6804 8.97361 38.4458ZM9.32551 40.2053L9.20821 39.9707V39.8534C9.20821 39.8534 9.09091 39.7361 9.09091 39.6188C9.20821 39.5015 9.20821 39.3842 9.32551 39.2669L9.44282 39.1496C9.56012 39.0323 9.56012 39.1496 9.56012 39.0323C9.56012 38.915 9.44282 38.7977 9.56012 38.6804C9.67742 38.5631 9.67742 38.6804 9.67742 38.6804H10.1466C10.0293 38.915 9.79472 39.2669 9.67742 39.5015C9.79472 39.5015 9.44282 40.088 9.32551 40.2053ZM41.7009 41.9648C32.3167 51.349 17.0674 51.349 7.68329 41.9648C-1.70088 32.5807 -1.70088 17.3314 7.68329 7.94724C17.0674 -1.43693 32.3167 -1.43693 41.7009 7.94724C51.085 17.3314 51.085 32.5807 41.7009 41.9648ZM42.0528 7.59533C32.434 -2.02344 16.8328 -2.02344 7.21408 7.59533C-2.40469 17.2141 -2.40469 32.8153 7.21408 42.434C16.8328 52.0528 32.434 52.0528 42.0528 42.434C51.6716 32.8153 51.6716 17.0968 42.0528 7.59533ZM36.1877 36.5689C29.8534 43.0205 19.4135 43.0205 13.0792 36.5689C6.74487 30.1173 6.62757 19.7947 13.0792 13.4604C19.4135 7.00882 29.7361 6.89152 36.1877 13.2258C42.6393 19.5601 42.7566 29.8827 36.4223 36.3343C36.305 36.3343 36.1877 36.4516 36.1877 36.5689ZM36.4223 13.2258C29.8534 6.77421 19.2962 6.77421 12.8446 13.2258C6.39296 19.6774 6.39296 30.3519 12.8446 36.8035C19.2962 43.2552 29.9707 43.2552 36.4223 36.8035C39.5894 33.6364 41.349 29.4135 41.349 25.0733C41.349 20.4986 39.5894 16.2757 36.4223 13.2258ZM6.39296 32.9326L6.27566 32.698C6.39296 32.698 6.51026 32.5807 6.51026 32.4634C6.62757 32.3461 6.62757 32.3461 6.62757 32.2288C6.62757 32.1115 6.62757 31.9942 6.62757 31.9942C6.62757 31.8769 6.51026 31.8769 6.51026 31.7596C6.51026 31.6423 6.39296 31.6423 6.27566 31.6423C6.15836 31.6423 6.15836 31.6423 6.04106 31.6423C5.92375 31.6423 5.92375 31.7596 5.80645 31.7596C5.80645 31.8769 5.68915 31.8769 5.68915 31.9942C5.68915 31.9942 5.68915 32.1115 5.68915 32.3461C5.68915 32.4634 5.68915 32.698 5.68915 32.8153C5.68915 32.9326 5.57185 33.0499 5.57185 33.0499C5.45455 33.1672 5.45455 33.1672 5.33724 33.2845C5.21994 33.2845 5.10264 33.4018 4.98534 33.2845C4.86804 33.2845 4.75073 33.2845 4.63343 33.1672C4.51613 33.0499 4.51613 33.0499 4.39883 32.9326C4.39883 32.8153 4.39883 32.698 4.39883 32.5807C4.39883 32.4634 4.51613 32.3461 4.63343 32.2288C4.75073 32.1115 4.86804 31.9942 4.98534 31.9942L5.10264 32.2288C4.98534 32.2288 4.86804 32.3461 4.75073 32.4634C4.75073 32.5807 4.75073 32.698 4.75073 32.8153C4.75073 32.9326 4.86804 33.0499 4.98534 33.0499C5.10264 33.0499 5.21994 33.0499 5.21994 33.0499C5.33724 33.0499 5.33724 32.9326 5.45455 32.9326C5.45455 32.8153 5.45455 32.698 5.45455 32.4634C5.45455 32.3461 5.45455 32.2288 5.45455 31.9942C5.45455 31.8769 5.57185 31.7596 5.57185 31.6423C5.80645 31.6423 5.92375 31.5249 6.04106 31.5249C6.15836 31.5249 6.27566 31.4076 6.39296 31.4076C6.51026 31.4076 6.62757 31.4076 6.74487 31.5249C6.86217 31.6423 6.97947 31.7596 6.97947 31.8769C6.97947 31.9942 6.97947 32.1115 6.97947 32.3461C6.97947 32.4634 6.86217 32.5807 6.74487 32.698C6.62757 32.698 6.51026 32.8153 6.39296 32.9326ZM5.33724 31.2903C4.98534 31.4076 4.63343 31.4076 4.28153 31.2903C4.04692 31.173 3.81232 31.0557 3.69501 30.8211C3.57771 30.7038 3.57771 30.4692 3.69501 30.3519C3.81232 30.2346 3.92962 30 4.04692 29.8827C4.28153 29.7654 4.51613 29.6481 4.75073 29.6481C4.98534 29.5308 5.21994 29.5308 5.45455 29.5308C5.68915 29.5308 5.80645 29.6481 6.04106 29.6481C6.15836 29.7654 6.27566 29.8827 6.27566 30C6.39296 30.1173 6.39296 30.3519 6.27566 30.4692C6.15836 30.7038 6.04106 30.8211 5.92375 30.9384C5.80645 31.173 5.57185 31.173 5.33724 31.2903ZM5.33724 31.0557C5.57185 30.9384 5.80645 30.8211 6.04106 30.7038C6.15836 30.5865 6.27566 30.3519 6.15836 30.2346C6.15836 30 5.92375 29.8827 5.80645 29.8827C5.57185 29.7654 5.21994 29.7654 4.98534 29.8827C4.75073 29.8827 4.63343 30 4.51613 30.1173C4.39883 30.2346 4.28153 30.3519 4.28153 30.4692C4.28153 30.5865 4.28153 30.7038 4.28153 30.8211C4.28153 30.9384 4.51613 31.173 4.63343 31.173C4.75073 31.173 4.98534 31.173 5.33724 31.0557ZM3.22581 28.2405V28.0059L4.63343 27.7713C4.86804 27.7713 5.10264 27.654 5.21994 27.7713C5.33724 27.7713 5.57185 27.8886 5.57185 27.8886C5.68915 28.0059 5.80645 28.1232 5.80645 28.2405C5.80645 28.3578 5.80645 28.5924 5.80645 28.7097C5.68915 28.827 5.57185 28.9443 5.45455 28.9443C5.21994 29.0616 4.98534 29.0616 4.75073 29.1789L3.46041 29.4135V29.1789L4.98534 28.9443C5.10264 28.9443 5.33724 28.827 5.45455 28.827C5.57185 28.827 5.57185 28.7097 5.68915 28.5924C5.80645 28.3578 5.68915 28.1232 5.45455 28.0059C5.21994 27.8886 4.98534 27.8886 4.75073 28.0059L3.22581 28.2405ZM5.68915 26.5983L3.34311 26.7156V27.3021H2.9912L2.8739 25.8945H3.22581V26.481L5.57185 26.3637L5.68915 26.5983ZM5.57185 25.4252L2.9912 25.3079V25.0733H4.04692V24.1349H2.9912V23.9003L5.57185 24.0176V24.2522H4.39883V25.1906H5.68915L5.57185 25.4252ZM5.57185 23.5484L2.9912 23.1965L3.1085 21.9062H3.46041L3.34311 22.9619L4.16422 23.0792L4.28153 22.0235L4.63343 22.2581L4.51613 23.3138L5.45455 23.4311L5.57185 22.2581H5.80645L5.57185 23.5484ZM5.80645 21.9062L3.22581 21.437L3.46041 20.6159C3.46041 20.4986 3.57771 20.3813 3.57771 20.264C3.69501 20.1466 3.81232 20.1467 3.81232 20.1467C3.92962 20.1467 4.04692 20.1467 4.16422 20.1467C4.28153 20.1467 4.51613 20.264 4.63343 20.3813C4.75073 20.4986 4.75073 20.6159 4.75073 20.8505L4.86803 20.7332C4.98534 20.7332 5.10264 20.6159 5.21994 20.6159L6.04106 20.4986V20.7332L5.45455 20.8505L5.10264 20.9678C4.98534 20.9678 4.98534 20.9678 4.86803 21.0851V21.2024L4.75073 21.437L5.92375 21.6716L5.80645 21.9062ZM4.39883 21.3197L4.51613 20.8505C4.51613 20.7332 4.51613 20.6159 4.51613 20.6159C4.51613 20.4986 4.39883 20.4986 4.39883 20.4986C4.28153 20.4986 4.28153 20.3813 4.16422 20.3813C4.04692 20.3813 3.92962 20.3813 3.81232 20.3813C3.69501 20.3813 3.69501 20.4986 3.57771 20.6159L3.46041 21.2024L4.39883 21.3197ZM6.15836 20.0293L3.57771 19.3255L3.69501 19.0909L6.04106 18.739L4.04692 18.1525L4.16422 17.9179L6.74487 18.6217L6.62757 18.8563L4.39883 19.2082L6.39296 19.7947L6.15836 20.0293ZM5.45455 14.7508L5.57185 14.5161L6.97947 15.3373C7.21408 15.4546 7.33138 15.5719 7.44868 15.6892C7.56598 15.8065 7.68329 15.9238 7.68329 16.0411C7.68329 16.1584 7.68329 16.393 7.68329 16.5103C7.56598 16.6276 7.56598 16.7449 7.33138 16.8622C7.21408 16.8622 7.09678 16.8622 6.86217 16.8622C6.62757 16.8622 6.39296 16.7449 6.27566 16.6276L4.86803 15.9238L4.98534 15.6892L6.39296 16.393C6.51026 16.5103 6.74487 16.5103 6.86217 16.6276C6.97947 16.6276 7.09678 16.6276 7.09678 16.6276C7.21408 16.6276 7.21408 16.5103 7.33138 16.393C7.44868 16.2757 7.44868 16.1584 7.33138 15.9238C7.21408 15.6892 6.97947 15.5719 6.74487 15.5719L5.45455 14.7508ZM8.15249 15.4546L5.92375 14.0469L6.04106 13.8123L8.3871 14.0469L6.62757 12.8739L6.74487 12.6393L8.97361 14.0469L8.85631 14.2815L6.51026 14.0469L8.2698 15.22L8.15249 15.4546ZM9.20821 13.8123L7.09678 12.2874L7.21408 12.0528L9.32551 13.5777L9.20821 13.8123ZM9.91202 12.8739L7.44868 11.7009L7.56598 11.4663L9.32551 12.4047L9.67742 12.6393L9.44282 12.2874L8.3871 10.5279L8.5044 10.2933L10.0293 12.522L9.91202 12.8739ZM10.7331 11.9355L8.97361 10.0587L9.91202 9.12026L10.1466 9.35486L9.32551 10.0587L9.91202 10.6452L10.6158 9.94137L10.8504 10.176L10.1466 10.8798L10.7331 11.5836L11.5543 10.7625L11.7889 10.9971L10.7331 11.9355ZM12.0235 10.7625L10.3812 8.65105L10.9677 8.18184C11.085 8.06454 11.2023 8.06454 11.3196 7.94724C11.437 7.94724 11.5543 7.94724 11.6716 7.94724C11.7889 8.06454 11.9062 8.06454 12.0235 8.18184C12.1408 8.29914 12.2581 8.41644 12.2581 8.65105C12.2581 8.76835 12.2581 9.00295 12.1408 9.12026H12.3754C12.4927 9.12026 12.61 9.23756 12.7273 9.23756L13.4311 9.58946L13.1965 9.82407L12.7273 9.58946L12.1408 9.35486C12.0235 9.35486 12.0235 9.35486 11.9062 9.35486H11.7889L11.6716 9.47216L11.437 9.58946L12.1408 10.5279L12.0235 10.7625ZM11.3196 9.35486L11.6716 9.12026C11.7889 9.12026 11.7889 9.00295 11.7889 8.88565C11.7889 8.76835 11.7889 8.76835 11.7889 8.65105C11.7889 8.53375 11.6716 8.53374 11.6716 8.41644C11.6716 8.41644 11.5543 8.29914 11.437 8.29914C11.3196 8.29914 11.2023 8.29914 11.085 8.41644L10.7331 8.76835L11.3196 9.35486ZM12.9619 8.76835L13.0792 8.65105C13.1965 8.76835 13.1965 8.76835 13.3138 8.88565C13.4311 8.88565 13.4311 9.00295 13.5484 9.00295C13.6657 9.00295 13.783 9.00295 13.783 8.88565L13.9003 8.76835C13.9003 8.65105 13.9003 8.65105 13.9003 8.53374C14.0176 8.41644 13.9003 8.18184 13.783 8.18184C13.6657 8.18184 13.6657 8.18184 13.5484 8.18184H13.3138C13.1965 8.18184 13.0792 8.18184 12.9619 8.18184C12.8446 8.18184 12.7273 8.18184 12.61 8.18184C12.4927 8.06454 12.4927 8.06454 12.3754 7.94724C12.2581 7.82993 12.2581 7.71263 12.2581 7.59533C12.2581 7.47803 12.2581 7.36072 12.2581 7.24342C12.2581 7.12612 12.3754 7.00882 12.4927 7.00882C12.61 6.89152 12.7273 6.89152 12.8446 6.89152C12.9619 6.89152 13.0792 6.89152 13.1965 7.00882C13.3138 7.12612 13.4311 7.24342 13.5484 7.36072L13.3138 7.47803C13.1965 7.36072 13.0792 7.24342 12.9619 7.24342C12.8446 7.24342 12.7273 7.24342 12.61 7.36072C12.4927 7.36072 12.4927 7.47803 12.3754 7.59533C12.3754 7.71263 12.3754 7.82993 12.3754 7.82993C12.3754 7.94723 12.4927 7.94724 12.61 7.94724C12.7273 7.94724 12.8446 7.94724 13.0792 7.94724C13.1965 7.94724 13.3138 7.82993 13.5484 7.82993C13.6657 7.82993 13.783 7.82993 13.9003 7.94724C13.9003 8.06454 14.0176 8.06454 14.1349 8.18184C14.2522 8.29914 14.2522 8.41644 14.2522 8.53374C14.2522 8.65105 14.2522 8.76835 14.2522 8.88565C14.2522 9.00295 14.1349 9.12026 14.0176 9.12026C13.9003 9.35486 13.783 9.35486 13.6657 9.35486C13.5484 9.35486 13.4311 9.35486 13.3138 9.23756C13.0792 9.12026 12.9619 9.00295 12.9619 8.76835ZM14.956 8.53374L13.6657 6.30501L13.9003 6.1877L15.1906 8.53374H14.956ZM16.0117 7.94724L14.956 5.8358L14.3695 6.0704L14.2522 5.8358L15.5425 5.13199L15.6598 5.36659L15.1906 5.8358L16.2463 7.94724H16.0117ZM17.4194 7.24342L16.9501 6.1877L15.7771 5.01468L16.0117 4.89738L16.5982 5.48389C16.7155 5.60119 16.8328 5.7185 16.9501 5.8358C16.9501 5.7185 16.9501 5.48389 16.9501 5.36659V4.54548L17.1848 4.42817L17.0674 6.0704L17.5367 7.12612L17.4194 7.24342ZM19.4135 5.24929C19.2962 4.89738 19.2962 4.54548 19.4135 4.19357C19.5308 3.95896 19.6481 3.72436 20 3.72436C20.1173 3.72436 20.3519 3.72436 20.4692 3.84166C20.5865 3.95896 20.8211 4.07627 20.9384 4.19357C20.9384 4.42817 21.0557 4.66278 21.173 4.89738C21.173 5.13199 21.173 5.36659 21.173 5.60119C21.173 5.8358 21.0557 5.9531 20.9384 6.1877C20.8211 6.30501 20.7038 6.42231 20.5865 6.42231C20.4692 6.42231 20.2346 6.42231 20.1173 6.30501C20 6.1877 19.7654 6.0704 19.6481 5.9531C19.5308 5.7185 19.4135 5.48389 19.4135 5.24929ZM19.6481 5.24929C19.6481 5.48389 19.7654 5.7185 20 5.9531C20.1173 6.1877 20.4692 6.1877 20.7038 6.0704C20.8211 5.9531 20.8211 5.9531 20.9384 5.8358C21.0557 5.60119 21.0557 5.24929 20.9384 5.01468C20.9384 4.78008 20.8211 4.66278 20.7038 4.42817C20.5865 4.31087 20.4692 4.19357 20.3519 4.07627C20.2346 4.07627 20.1173 4.07627 20 4.07627C19.7654 4.07627 19.6481 4.31087 19.6481 4.42817C19.6481 4.78008 19.6481 5.01468 19.6481 5.24929ZM21.7595 6.1877L21.5249 3.48976L22.6979 3.37245V3.72436L21.7595 3.84166L21.8768 4.66278L22.6979 4.54548V4.89738L21.8768 5.01468L21.9941 6.1877H21.7595ZM24.5748 5.13199H24.8094C24.8094 5.24929 24.8094 5.36659 24.9267 5.48389C24.9267 5.60119 25.044 5.60119 25.044 5.7185C25.1613 5.7185 25.1613 5.8358 25.2786 5.8358C25.3959 5.8358 25.3959 5.8358 25.5132 5.8358C25.6305 5.8358 25.6305 5.7185 25.7478 5.60119C25.7478 5.48389 25.7478 5.48389 25.7478 5.36659C25.7478 5.24929 25.7478 5.24929 25.7478 5.13199C25.7478 5.01468 25.6305 5.01468 25.6305 5.01468L25.2786 4.89738C25.1613 4.89738 25.044 4.78008 24.9267 4.66278C24.8094 4.54548 24.8094 4.54548 24.6921 4.42817C24.6921 4.31087 24.5748 4.19357 24.6921 4.07627C24.6921 3.95897 24.6921 3.84166 24.8094 3.72436C24.8094 3.60706 24.9267 3.48976 25.044 3.48976C25.1613 3.48976 25.2786 3.37245 25.3959 3.37245C25.5132 3.37245 25.6305 3.37245 25.7478 3.48976C25.7478 3.48976 25.8651 3.60706 25.9824 3.72436C25.9824 3.84166 26.0997 3.95896 26.0997 4.19357H25.7478C25.7478 4.07627 25.7478 3.95896 25.6305 3.84166C25.5132 3.72436 25.3959 3.72436 25.2786 3.72436C25.1613 3.72436 25.044 3.72436 24.9267 3.84166C24.8094 3.95896 24.8094 4.07627 24.8094 4.07627C24.8094 4.19357 24.8094 4.19357 24.9267 4.31087C25.044 4.42817 25.1613 4.42817 25.2786 4.54548C25.3959 4.54548 25.5132 4.66278 25.7478 4.78008C25.8651 4.89738 25.8651 4.89738 25.9824 5.01468C25.9824 5.13199 25.9824 5.24929 25.9824 5.36659C25.9824 5.48389 25.9824 5.60119 25.8651 5.7185C25.7478 5.7185 25.7478 5.8358 25.6305 5.9531C25.5132 6.0704 25.3959 6.0704 25.2786 6.0704C25.1613 6.0704 25.044 6.0704 24.8094 5.9531C24.6921 5.8358 24.5748 5.7185 24.5748 5.60119C24.5748 5.36659 24.5748 5.24929 24.5748 5.13199ZM27.7419 5.24929L27.9765 5.36659C27.8592 5.60119 27.7419 5.8358 27.6246 5.9531C27.5073 6.0704 27.2727 6.1877 27.1554 6.0704C27.0381 6.0704 26.8035 5.9531 26.6862 5.8358C26.5689 5.7185 26.4516 5.48389 26.4516 5.24929C26.4516 5.01468 26.4516 4.78008 26.4516 4.54548C26.4516 4.31087 26.5689 4.07627 26.6862 3.84166C26.8035 3.72436 26.9208 3.48976 27.0381 3.37245C27.1554 3.48976 27.2727 3.48976 27.5073 3.48976C27.6246 3.48976 27.8592 3.60706 27.9765 3.72436C27.9765 3.95897 28.0938 4.07627 28.0938 4.31087H27.8592C27.8592 4.19357 27.8592 3.95896 27.7419 3.84166C27.6246 3.72436 27.5073 3.72436 27.5073 3.72436C27.39 3.72436 27.2727 3.72436 27.1554 3.84166C27.0381 3.95896 26.9208 4.07627 26.9208 4.19357C26.9208 4.31087 26.8035 4.54548 26.8035 4.66278C26.8035 4.89738 26.8035 5.01468 26.8035 5.24929C26.8035 5.36659 26.9208 5.48389 26.9208 5.60119C26.9208 5.7185 27.0381 5.8358 27.1554 5.8358C27.2727 5.8358 27.39 5.8358 27.5073 5.7185C27.6246 5.60119 27.7419 5.48389 27.7419 5.24929ZM28.2111 6.30501L28.6804 3.72436H28.915L28.4457 6.30501H28.2111ZM28.915 6.42231L29.6188 3.84166L30.9091 4.19357L30.7918 4.42817L29.7361 4.19357L29.5015 5.01468L30.4399 5.24929V5.60119L29.5015 5.36659L29.2669 6.1877L30.3226 6.53961L30.2053 6.77421L28.915 6.42231ZM30.6745 6.89152L31.6129 4.42817L31.8475 4.54548L31.9648 6.77421L32.7859 4.89738L33.0205 5.01468L31.9648 7.47803L31.7302 7.36072L31.6129 5.01468L30.7918 7.00882L30.6745 6.89152ZM33.9589 7.36072L34.0762 7.59533C33.9589 7.82993 33.7243 7.94724 33.4897 8.06454C33.3724 8.18184 33.1378 8.18184 32.9032 8.06454C32.7859 7.94724 32.6686 7.82993 32.5513 7.71263C32.5513 7.47803 32.5513 7.36072 32.5513 7.12612C32.5513 6.89152 32.6686 6.65691 32.7859 6.42231C32.9032 6.1877 33.0205 5.9531 33.2551 5.8358C33.3724 5.7185 33.607 5.60119 33.7243 5.60119C33.8416 5.60119 34.0763 5.60119 34.1936 5.60119C34.3109 5.7185 34.4282 5.8358 34.5455 5.9531C34.5455 6.1877 34.5455 6.42231 34.5455 6.53961H34.3109C34.3109 6.42231 34.3109 6.1877 34.3109 6.0704C34.3109 5.9531 34.1936 5.8358 34.0762 5.8358C33.9589 5.8358 33.8416 5.8358 33.7243 5.8358C33.607 5.8358 33.4897 5.9531 33.3724 6.0704C33.2551 6.1877 33.1378 6.30501 33.1378 6.53961C33.0205 6.65691 33.0205 6.89152 32.9032 7.12612C32.9032 7.24342 32.9032 7.36072 32.9032 7.59533C32.9032 7.71263 33.0205 7.82993 33.1378 7.82993C33.2551 7.94723 33.3724 7.94723 33.4897 7.82993C33.7243 7.71263 33.8416 7.47803 33.9589 7.36072ZM34.0762 8.41644L35.4839 6.1877L36.6569 6.89152L36.5396 7.12612L35.6012 6.53961L35.132 7.24342L35.9531 7.82993L35.8358 8.06454L35.0147 7.47803L34.5455 8.18184L35.4839 8.76835L35.3666 9.00295L34.0762 8.41644ZM36.305 9.94137L38.5337 8.41644L38.7683 8.65105L37.5953 11.1144L37.3607 10.9971L37.7126 10.2933L37.1261 9.82407L36.4223 10.2933L36.305 9.94137ZM37.478 9.47216L37.9472 9.94137L38.2991 9.23756L38.5337 8.76835C38.4164 8.88565 38.2991 9.00295 38.1818 9.12026L37.478 9.47216ZM37.8299 11.2317L39.5894 9.35486L39.8241 9.47216L39.0029 11.7009L40.5279 10.2933L40.6452 10.4106L38.7683 12.1701L38.5337 12.0528L39.3548 9.94137L37.8299 11.349V11.2317ZM39.1202 12.522L41.2317 10.8798L41.5836 11.349C41.7009 11.4663 41.7009 11.4663 41.8182 11.5836C41.8182 11.7009 41.8182 11.8182 41.8182 11.9355C41.8182 12.0528 41.7009 12.2874 41.5836 12.4047C41.4663 12.522 41.2317 12.6393 41.1144 12.7566C40.9971 12.8739 40.8798 12.9912 40.6452 12.9912C40.5279 13.1085 40.4106 13.1085 40.2933 13.1085C40.176 13.1085 40.0587 13.1085 40.0587 13.1085C39.9414 13.1085 39.9414 13.1085 39.8241 12.9912C39.7067 12.9912 39.7067 12.8739 39.5894 12.7566L39.1202 12.522ZM39.4721 12.522L39.7067 12.8739C39.8241 12.9912 39.824 12.9912 39.9413 13.1085C40.0587 13.1085 40.0587 13.1085 40.176 13.1085C40.2933 13.1085 40.4106 13.1085 40.5279 12.9912C40.6452 12.8739 40.8798 12.7566 40.9971 12.7566C41.1144 12.6393 41.349 12.522 41.4663 12.2874C41.5836 12.1701 41.5836 12.0528 41.5836 11.9355C41.5836 11.8182 41.4663 11.7009 41.4663 11.7009L40.9971 11.349L39.4721 12.522ZM41.1144 15.4546L43.1085 14.2815L42.7566 13.8123L42.9912 13.695L43.695 14.9854L43.4604 15.1027L43.3431 14.5161L41.349 15.6892L41.1144 15.4546ZM41.7009 16.5103L44.0469 15.4546L44.6334 16.6276L44.3988 16.7449L43.9296 15.8065L43.2258 16.1584L43.5777 17.0968L43.3431 17.2141L42.9912 16.2757L42.1701 16.6276L42.6393 17.6833H42.1701L41.7009 16.5103ZM43.695 18.9736V19.2082C43.4604 19.3255 43.2258 19.3255 42.9912 19.2082C42.8739 19.0909 42.6393 18.9736 42.6393 18.8563C42.522 18.739 42.522 18.5044 42.6393 18.3871C42.7566 18.2698 42.8739 18.0352 42.9912 17.9179C43.2258 17.8006 43.4604 17.6833 43.5777 17.566C43.8123 17.4487 44.0469 17.4487 44.2815 17.4487C44.5161 17.4487 44.6334 17.4487 44.868 17.566C44.9853 17.6833 45.1026 17.8006 45.2199 17.9179C45.3372 18.0352 45.3372 18.2698 45.2199 18.3871C45.1026 18.6217 44.9853 18.739 44.7507 18.8563L44.5161 18.6217C44.6334 18.5044 44.7507 18.5044 44.868 18.2698C44.868 18.1525 44.868 18.0352 44.868 17.9179C44.868 17.8006 44.7507 17.6833 44.6334 17.6833C44.5161 17.6833 44.3988 17.566 44.1642 17.566C44.0469 17.566 43.8123 17.6833 43.695 17.6833C43.4604 17.8006 43.3431 17.8006 43.1085 17.9179C42.9912 18.0352 42.8739 18.1525 42.8739 18.2698C42.8739 18.3871 42.8739 18.5044 42.8739 18.6217C42.8739 18.739 42.9912 18.8563 43.1085 18.8563C43.2258 18.9736 43.4604 18.9736 43.695 18.9736ZM42.9912 19.912L45.5719 19.3255V19.5601L44.5161 19.7947L44.7507 20.7332L45.8065 20.4986V20.7332L43.2258 21.3197V21.0851L44.3988 20.8505L44.1642 19.912L42.9912 20.1467V19.912ZM43.3431 21.6716L45.9238 21.3197V21.5543L43.9296 22.7273L46.0411 22.4927V22.7273L43.4604 23.0792V22.8446L45.4545 21.6716L43.3431 21.9062V21.6716ZM44.868 23.4311C45.2199 23.4311 45.5719 23.4311 45.9238 23.6657C46.1584 23.783 46.2757 24.0176 46.2757 24.2522C46.2757 24.3695 46.2757 24.6041 46.1584 24.7214C46.0411 24.8387 45.9238 24.956 45.6892 25.0733C45.4545 25.1906 45.2199 25.1906 44.9853 25.1906C44.7507 25.1906 44.5161 25.1906 44.2815 25.0733C44.0469 25.0733 43.9296 24.956 43.8123 24.7214C43.5777 24.4868 43.5777 24.0176 43.8123 23.783C43.9296 23.6657 44.1642 23.5484 44.2815 23.4311C44.3988 23.4311 44.6334 23.4311 44.868 23.4311ZM44.868 23.6657C44.6334 23.6657 44.3988 23.783 44.1642 23.9003C44.0469 24.0176 43.9296 24.1349 43.9296 24.3695C43.9296 24.6041 44.0469 24.7214 44.1642 24.8387C44.3988 24.956 44.6334 24.956 44.9853 24.956C45.2199 24.956 45.3372 24.956 45.5719 24.8387C45.6892 24.8387 45.8065 24.7214 45.9238 24.6041C46.0411 24.4868 46.0411 24.3695 46.0411 24.2522C46.0411 24.0176 45.9238 23.9003 45.8065 23.783C45.4545 23.6657 45.1026 23.6657 44.868 23.6657ZM43.5777 25.5425L46.1584 25.7771V26.0118L43.8123 25.8945L43.695 26.8329H43.3431L43.5777 25.5425ZM44.7507 27.0675C45.1026 27.0675 45.4545 27.1848 45.6892 27.4194C45.9238 27.5367 46.0411 27.7713 45.9238 28.1232C45.9238 28.2405 45.8065 28.4751 45.6892 28.5924C45.5718 28.7097 45.3372 28.827 45.2199 28.827C44.9853 28.827 44.7507 28.827 44.5161 28.827C44.2815 28.827 44.0469 28.7097 43.8123 28.5924C43.695 28.4751 43.4604 28.3578 43.3431 28.2405C43.3431 28.1232 43.3431 27.8886 43.3431 27.7713C43.3431 27.654 43.4604 27.4194 43.5777 27.3021C43.695 27.1848 43.9296 27.0675 44.0469 27.0675C44.2815 27.0675 44.5161 27.0675 44.7507 27.0675ZM44.7507 27.3021C44.5161 27.3021 44.2815 27.3021 43.9296 27.4194C43.695 27.5367 43.5777 27.654 43.5777 27.8886C43.5777 28.1232 43.695 28.2405 43.8123 28.3578C44.0469 28.4751 44.2815 28.5924 44.5161 28.5924C44.7507 28.5924 44.868 28.5924 45.1026 28.5924C45.2199 28.5924 45.3372 28.4751 45.4545 28.4751C45.6892 28.3578 45.6892 28.2405 45.6892 28.1232C45.6892 27.8886 45.6892 27.7713 45.4545 27.654C45.2199 27.4194 44.9853 27.4194 44.7507 27.3021ZM43.9296 30.1173L44.1642 30.2346L43.9296 30.9384L42.9912 30.7038C42.8739 30.5865 42.8739 30.4692 42.7566 30.2346C42.7566 30.1173 42.7566 30 42.7566 29.8827C42.7566 29.7654 42.8739 29.5308 42.9912 29.4135C43.1085 29.2962 43.3431 29.1789 43.5777 29.1789C43.8123 29.1789 44.0469 29.1789 44.2815 29.2962C44.5161 29.4135 44.7507 29.4135 44.9853 29.6481C45.1026 29.7654 45.3372 29.8827 45.3372 30.1173C45.4546 30.2346 45.4546 30.4692 45.3372 30.5865C45.3372 30.7038 45.2199 30.8211 45.1026 30.9384C44.9853 31.0557 44.868 31.0557 44.7507 31.0557C44.6334 31.0557 44.3988 31.0557 44.2815 31.0557V30.8211C44.3988 30.8211 44.5161 30.8211 44.6334 30.8211C44.7507 30.8211 44.7507 30.8211 44.868 30.7038C44.9853 30.5865 44.9853 30.5865 44.9853 30.4692C44.9853 30.3519 44.9853 30.2346 44.9853 30.2346C44.9853 30.1173 44.868 30.1173 44.868 30C44.7507 29.8827 44.7507 29.8827 44.6334 29.8827C44.5161 29.7654 44.2815 29.7654 44.1642 29.6481C43.9296 29.5308 43.8123 29.5308 43.5777 29.5308C43.4604 29.5308 43.3431 29.5308 43.2258 29.6481C43.1085 29.7654 43.1085 29.7654 42.9912 29.8827C42.9912 30 42.9912 30.1173 42.9912 30.2346C42.9912 30.3519 43.1085 30.4692 43.1085 30.4692L43.5777 30.5865L43.9296 30.1173ZM42.4047 31.4076L43.4604 31.8769L45.1026 31.7596L44.9853 31.9942H44.1642H43.695C43.8123 32.1115 43.9296 32.2288 44.0469 32.3461L44.6334 32.9326L44.5161 33.2845L43.3431 31.9942L42.4047 31.6423V31.4076Z" fill="black"/>
<path d="M127.214 10.7624C127.566 10.8797 127.918 11.1143 128.27 11.3489C128.504 11.4662 128.739 11.8181 128.739 12.0527C128.739 12.2873 128.622 12.5219 128.504 12.6392C128.152 12.8738 127.801 12.8738 127.449 12.8738C126.745 12.8738 126.158 12.7565 125.454 12.4046V13.8122C126.158 14.0468 126.862 14.1641 127.566 14.1641C128.27 14.1641 128.974 14.0468 129.677 13.6949C130.264 13.343 130.498 12.6392 130.498 11.9354C130.498 11.4662 130.264 10.8797 129.912 10.5278C129.56 10.1759 129.091 9.82397 128.504 9.58937C128.152 9.47206 127.801 9.23746 127.566 9.00286C127.331 8.88555 127.214 8.65095 127.214 8.29904C127.214 7.71253 127.566 7.47793 128.504 7.47793C129.091 7.47793 129.677 7.59523 130.147 7.82984H130.264V6.65681C129.677 6.53951 129.091 6.42221 128.504 6.42221C127.801 6.42221 127.097 6.53951 126.51 6.89142C126.041 7.24333 125.689 7.94714 125.806 8.53365C125.455 9.47206 126.041 10.2932 127.214 10.7624Z" fill="black"/>
<path d="M136.95 13.9295V12.5219C136.481 12.6392 136.012 12.7565 135.543 12.7565C134.839 12.8738 134.252 12.6392 133.783 12.17C133.431 11.5835 133.196 10.997 133.314 10.2932C133.196 9.58937 133.431 8.88555 133.9 8.29904C134.369 7.82984 134.956 7.59523 135.66 7.71253C136.129 7.71253 136.598 7.82984 137.067 7.94714H137.185V6.65681C136.716 6.53951 136.246 6.42221 135.777 6.42221C133.196 6.42221 131.906 7.71253 131.906 10.4105C131.789 11.4662 132.141 12.5219 132.845 13.343C133.666 14.0468 134.721 14.2814 135.777 14.2814C136.012 14.1641 136.481 14.1641 136.95 13.9295Z" fill="black"/>
<path d="M143.167 9.58934H140.235V6.53948H138.592V14.0468H140.235V10.8797H143.167V14.0468H144.692V6.53948H143.167V9.58934Z" fill="black"/>
<path d="M152.434 13.2258C153.138 12.4047 153.372 11.349 153.372 10.2933C153.49 9.23754 153.138 8.29912 152.551 7.47801C151.848 6.7742 151.026 6.42229 149.971 6.42229C149.032 6.30499 147.977 6.7742 147.39 7.47801C146.686 8.29912 146.334 9.35484 146.452 10.4106C146.334 11.4663 146.686 12.4047 147.39 13.2258C148.094 13.9296 149.032 14.2815 149.971 14.2815C150.792 14.2815 151.73 13.9296 152.434 13.2258ZM151.73 10.2933C151.848 10.9971 151.613 11.8182 151.144 12.4047C150.792 12.7566 150.323 12.8739 149.853 12.8739C148.563 12.8739 147.977 12.0528 147.977 10.2933C147.977 9.58945 148.094 9.00294 148.446 8.41643C148.798 7.94722 149.384 7.71261 149.971 7.71261C150.557 7.71261 151.026 7.94722 151.378 8.41643C151.613 9.00294 151.848 9.58945 151.73 10.2933Z" fill="black"/>
<path d="M160.763 13.2258C161.466 12.4047 161.701 11.349 161.701 10.2933C161.818 9.23754 161.466 8.29912 160.88 7.47801C160.293 6.7742 159.355 6.42229 158.416 6.42229C157.478 6.30499 156.422 6.7742 155.836 7.47801C155.132 8.29912 154.78 9.35484 154.897 10.4106C154.78 11.4663 155.132 12.4047 155.836 13.2258C156.54 13.9296 157.478 14.2815 158.416 14.2815C159.12 14.2815 160.059 13.8123 160.763 13.2258ZM156.774 8.41643C157.126 7.94722 157.713 7.71261 158.299 7.71261C158.886 7.71261 159.355 7.94722 159.707 8.41643C160.059 9.00294 160.176 9.70675 160.176 10.2933C160.293 10.9971 160.059 11.8182 159.589 12.4047C159.238 12.7566 158.768 12.8739 158.299 12.8739C157.009 12.8739 156.422 12.0528 156.422 10.2933C156.188 9.58945 156.422 9.00294 156.774 8.41643Z" fill="black"/>
<path d="M164.868 6.53948H163.343V14.0468H167.683V12.7565H164.868V6.53948Z" fill="black"/>
<path d="M174.487 6.42229C173.548 6.30499 172.493 6.7742 171.906 7.47801C171.202 8.29912 170.85 9.35484 170.968 10.4106C170.968 11.4663 171.202 12.4047 171.906 13.2258C172.61 13.9296 173.548 14.2815 174.487 14.2815C175.425 14.3988 176.364 13.9296 177.067 13.2258C177.771 12.4047 178.123 11.349 178.006 10.2933C178.123 9.23754 177.771 8.29912 177.185 7.47801C176.364 6.7742 175.425 6.30499 174.487 6.42229ZM172.962 8.41643C173.314 7.94722 173.9 7.71261 174.37 7.71261C174.956 7.71261 175.425 7.94722 175.777 8.41643C176.129 9.00294 176.246 9.70675 176.246 10.2933C176.364 10.9971 176.129 11.8182 175.66 12.4047C175.308 12.7566 174.839 12.8739 174.37 12.8739C173.079 12.8739 172.493 12.0528 172.493 10.2933C172.375 9.58945 172.61 9.00294 172.962 8.41643Z" fill="black"/>
<path d="M183.754 7.8298V6.53948H179.531V14.0468H181.056V10.997H183.519V9.82394H181.056V7.8298H183.754Z" fill="black"/>
<path d="M128.152 20.4984H125.454V28.0058H128.27C129.208 28.1231 130.147 27.7712 130.85 27.1847C131.437 26.3635 131.672 25.3078 131.554 24.2521C131.672 23.3137 131.437 22.258 130.85 21.4368C130.147 20.733 129.208 20.3811 128.152 20.4984ZM129.912 24.2521C130.029 24.9559 129.795 25.6597 129.56 26.2462C129.208 26.5981 128.739 26.8327 128.152 26.7154H126.979V21.7888H128.152C128.622 21.7888 129.091 21.9061 129.443 22.1407C129.795 22.8445 129.912 23.5483 129.912 24.2521Z" fill="black"/>
<path d="M134.721 24.8386H137.185V23.6656H134.721V21.7888H137.419V20.4984H133.196V28.0058H137.537V26.7155H134.721V24.8386Z" fill="black"/>
<path d="M141.76 23.6656C141.408 23.5483 141.056 23.3137 140.821 23.0791C140.587 22.9618 140.469 22.7272 140.469 22.3753C140.469 21.7888 140.821 21.5542 141.76 21.5542C142.346 21.5542 142.933 21.6715 143.402 21.9061H143.519V20.6158C142.933 20.4985 142.346 20.3812 141.76 20.3812C141.056 20.3812 140.352 20.4985 139.765 20.8504C139.179 21.2023 138.944 21.9061 138.944 22.4926C138.944 23.431 139.531 24.1348 140.704 24.7213C141.056 24.8386 141.525 25.0732 141.877 25.3079C142.112 25.4252 142.346 25.7771 142.346 26.0117C142.346 26.2463 142.229 26.4809 142.112 26.5982C141.76 26.7155 141.408 26.8328 141.056 26.8328C140.352 26.8328 139.765 26.7155 139.062 26.3636H138.944V27.7712C139.648 28.0058 140.352 28.1231 141.056 28.1231C141.76 28.1231 142.463 28.0058 143.167 27.6539C143.754 27.302 143.988 26.5982 143.988 25.8944C143.988 25.3079 143.754 24.8386 143.402 24.4867C142.815 24.2521 142.346 23.9002 141.76 23.6656Z" fill="black"/>
<path d="M146.921 20.4984H145.396V28.0058H146.921V20.4984Z" fill="black"/>
<path d="M151.73 24.9559H153.255V26.1289C153.255 26.3635 153.138 26.4808 153.021 26.5982C152.669 26.7155 152.434 26.8328 152.082 26.7155C151.496 26.7155 151.026 26.5981 150.675 26.1289C150.323 25.5424 150.205 24.8386 150.205 24.1348C150.205 23.431 150.323 22.7272 150.675 22.1407C151.026 21.6715 151.613 21.5542 152.199 21.5542C152.903 21.5542 153.607 21.6715 154.194 22.0234H154.311V20.733C153.607 20.4984 152.903 20.3811 152.199 20.3811C151.144 20.2638 150.205 20.6157 149.502 21.4369C148.915 22.258 148.563 23.3137 148.563 24.3694C148.446 25.4251 148.798 26.4808 149.384 27.302C150.088 28.0058 151.026 28.3577 152.082 28.2404C152.786 28.2404 153.49 28.1231 154.076 27.7712C154.545 27.4193 154.78 26.8328 154.78 26.2462V23.7829H151.848L151.73 24.9559Z" fill="black"/>
<path d="M161.232 24.9559C161.232 25.1905 161.232 25.4251 161.232 25.5424C161.114 25.4251 161.114 25.3078 160.997 25.1905L158.065 20.4984H156.422V28.1231H157.947V23.6656C157.947 23.431 157.947 23.1964 157.947 22.9618C157.947 23.0791 158.065 23.1964 158.065 23.3137L161.114 28.1231H162.757V20.6157H161.232V24.9559Z" fill="black"/>
<path d="M101.056 0.791789L114.78 8.65103C116.774 9.70674 117.947 11.8182 117.947 14.1642V35.7478C117.947 37.9765 116.774 40.088 114.78 41.261L101.056 49.1202C99.0616 50.2933 96.7156 50.2933 94.7215 49.1202L80.9971 41.261C79.003 40.088 77.83 38.0938 77.83 35.7478V14.1642C77.83 11.9355 79.003 9.82405 80.9971 8.65103L94.7215 0.791789C96.7156 -0.26393 99.0616 -0.26393 101.056 0.791789ZM95.8945 2.90323L82.2874 10.7625C81.1144 11.4663 80.2933 12.7566 80.2933 14.1642V35.7478C80.2933 37.1554 80.9971 38.4457 82.2874 39.1496L96.0118 47.0088C97.1848 47.7126 98.7097 47.7126 99.8827 47.0088L113.607 39.1496C114.897 38.4457 115.601 37.1554 115.601 35.7478V14.1642C115.601 12.7566 114.897 11.4663 113.607 10.7625L99.7654 2.90323C98.5924 2.19941 97.0675 2.19941 95.8945 2.90323ZM92.7273 28.2405L92.2581 28.4751C91.3197 28.827 90.8505 29.6481 90.9678 30.5865V32.2287C90.9678 32.5806 91.2024 32.8152 91.5543 32.6979C91.6716 32.6979 91.6716 32.6979 91.7889 32.5806L95.308 30.5865C96.2464 30.1173 96.8329 29.1789 96.7156 28.1232V22.9619C96.8329 21.9062 96.2464 20.9677 95.308 20.4985L89.5602 17.566C89.3256 17.4487 88.9737 17.566 88.8563 17.8006C88.8563 17.9179 88.739 17.9179 88.739 18.0352V19.6774C88.6217 20.6158 89.091 21.5543 90.0294 21.7889L92.7273 23.3138C93.0792 23.4311 93.3138 23.783 93.1965 24.2522V27.4194C93.1965 27.7713 93.0792 28.1232 92.7273 28.2405ZM91.9062 10.6452L86.0411 14.0469C85.1027 14.3988 84.5162 15.3372 84.7508 16.2757V17.9179C84.7508 18.2698 84.9854 18.5044 85.3373 18.3871C85.4546 18.3871 85.4546 18.3871 85.5719 18.2698L92.8446 14.0469C93.1965 13.8123 93.5484 13.8123 93.9003 14.0469L97.7713 16.1584C98.0059 16.2757 98.3578 16.1584 98.4751 15.9238C98.4751 15.8065 98.5924 15.8065 98.5924 15.6891V14.1642C98.7097 13.2258 98.2405 12.2874 97.3021 11.9355L94.8388 10.5279C93.783 10.176 92.7273 10.176 91.9062 10.6452ZM100.235 30.2346C100.117 31.173 100.587 32.1114 101.525 32.4633L102.933 33.2845C103.167 33.4018 103.519 33.2845 103.636 33.0499C103.636 32.9326 103.754 32.9326 103.754 32.8152V20.2639C103.871 19.3255 103.402 18.3871 102.463 18.0352L101.056 17.2141C100.821 17.0968 100.469 17.2141 100.352 17.4487C100.352 17.566 100.235 17.566 100.235 17.6833V30.2346ZM106.686 33.5191L101.525 36.4516C100.587 36.8035 100.117 37.7419 100.235 38.6803V40.3226C100.235 40.6745 100.469 40.9091 100.821 40.7918C100.938 40.7918 100.938 40.7918 101.056 40.6745L109.267 35.9824C110.205 35.5132 110.792 34.5748 110.675 33.5191V16.393C110.792 15.3372 110.205 14.3988 109.267 13.9296L101.056 9.23754C100.821 9.12023 100.469 9.23754 100.352 9.47214C100.352 9.58944 100.352 9.58944 100.352 9.70675V11.2317C100.235 12.1701 100.704 13.1085 101.642 13.3431L106.686 16.393C107.038 16.5103 107.273 16.8622 107.155 17.3314V32.6979C107.273 32.9325 107.038 33.2845 106.686 33.5191ZM85.1027 25.4252C84.9854 24.4868 85.4546 23.5484 86.393 23.1965L87.8006 22.3754C88.0352 22.2581 88.3871 22.3754 88.5044 22.61C88.5044 22.7273 88.5044 22.7273 88.5044 22.8446V32.5806C88.5044 32.9325 88.739 33.2845 88.9737 33.5191L94.1349 36.4516C95.0734 36.8035 95.5426 37.7419 95.4253 38.6803V40.3226C95.4253 40.6745 95.1907 40.9091 94.8388 40.7918C94.7215 40.7918 94.7214 40.7918 94.6041 40.6745L86.393 35.9824C85.4546 35.5132 84.8681 34.5748 84.9854 33.5191L85.1027 25.4252Z" fill="black"/>
<path d="M151.144 42.082C151.144 42.4339 151.026 42.5512 150.674 42.5512H149.619L149.736 43.607H151.261C152.082 43.607 152.317 43.255 152.317 42.5512V34.5747L151.144 34.4574V42.082Z" fill="black"/>
<path d="M150.44 41.261V35.2786L149.267 35.1613V36.9208C148.563 36.3343 147.977 35.7478 147.273 35.044L147.507 34.6921L146.452 34.2228C145.631 35.3959 144.692 36.5689 143.636 37.5073L144.458 38.3284L144.692 38.2111V42.1994C144.692 43.0205 145.044 43.3724 145.982 43.3724H148.094C148.68 43.3724 149.15 43.0205 149.15 42.5513V42.434V41.3783L147.977 41.1437V41.8475C147.977 42.0821 147.859 42.3167 147.625 42.3167H146.334C145.982 42.3167 145.982 42.1994 145.982 41.8475V38.7976H147.507V39.736C147.507 40.088 147.39 40.0879 147.156 40.0879H146.569L146.686 41.0264H147.507C148.446 41.0264 148.563 40.7918 148.563 40.0879V37.8592L147.625 37.5073C147.507 37.6246 147.273 37.7419 147.038 37.7419H145.396C145.982 37.1554 146.452 36.6862 146.921 35.9824C147.507 36.6862 148.094 37.2727 148.798 37.9765L149.502 37.2727V41.3783H150.44V41.261Z" fill="black"/>
<path d="M194.78 40.3225C194.78 39.5014 194.545 38.7975 194.076 38.211L194.663 35.9823V34.9266L193.607 34.5747C193.372 34.692 193.138 34.8093 192.903 34.8093H191.73V43.6069H192.786V41.1436L192.903 41.9647H193.49C194.663 41.8474 194.78 41.1436 194.78 40.3225ZM193.372 40.7917H193.02V35.9823H193.724L193.138 38.4456C193.607 39.0322 193.842 39.736 193.842 40.4398C193.724 40.6744 193.607 40.7917 193.372 40.7917Z" fill="black"/>
<path d="M199.472 41.0263V42.1994C199.472 42.3167 199.472 42.434 199.238 42.434H198.886C198.768 42.434 198.768 42.3167 198.768 42.1994V40.0879H200.059V39.0322H194.897V40.0879H195.836V40.2052C195.836 41.3782 195.132 42.434 194.076 42.9032L194.897 43.7243C196.188 43.1378 197.009 41.7301 197.009 40.3225V40.0879H197.713V42.434C197.713 43.1378 198.065 43.3724 198.768 43.3724H199.589C200.176 43.3724 200.528 43.1378 200.528 42.434V41.1436L199.472 41.0263Z" fill="black"/>
<path d="M183.519 37.2727H189.384V38.4457H190.557V36.3343L189.501 35.9823C189.384 36.0997 189.15 36.217 189.032 36.217C189.267 35.7477 189.619 35.3958 189.853 34.9266L188.68 34.3401C188.328 34.9266 187.976 35.5131 187.507 36.217H186.803L187.273 35.9823C186.921 35.3958 186.569 34.8093 186.217 34.3401L185.161 34.8093C185.396 35.2785 185.63 35.7477 185.982 36.217H184.692L185.044 35.9823C184.692 35.3958 184.34 34.8093 183.988 34.3401L182.933 34.9266C183.167 35.3958 183.402 35.865 183.754 36.217H182.346V38.4457H183.519V37.2727Z" fill="black"/>
<path d="M171.085 39.5013V38.5629L169.912 38.211C169.795 38.3283 169.56 38.4456 169.326 38.4456H166.51C167.331 37.9764 167.801 37.1553 167.801 36.2169V35.865H169.208V37.038C169.208 37.8591 169.56 38.0937 170.381 38.0937H171.437L171.554 37.038H170.616C170.381 37.038 170.381 36.9207 170.381 36.8034V35.0439L169.208 34.6919C168.974 34.8092 168.739 34.9266 168.504 34.9266H166.628V35.9823C166.628 36.8034 166.276 37.5072 165.572 37.8591L166.276 38.5629H165.924V39.6186H166.862L166.158 39.9705C166.51 40.6744 166.98 41.2609 167.566 41.7301C166.862 42.1993 166.041 42.5512 165.337 42.7858L165.924 43.7242C166.862 43.3723 167.683 43.0204 168.504 42.4339C169.326 43.0204 170.264 43.4896 171.202 43.7242L171.789 42.6685C170.968 42.4339 170.264 42.082 169.56 41.6128C170.264 41.1436 170.733 40.3224 171.085 39.5013ZM167.331 39.5013H169.795C169.56 40.0878 169.091 40.5571 168.622 41.0263C168.153 40.5571 167.683 40.0878 167.331 39.5013Z" fill="black"/>
<path d="M166.041 40.7919L165.337 41.2611V37.6248L164.282 37.2729C164.047 37.3902 163.812 37.5075 163.578 37.5075H162.991V38.6805H164.164V41.613C164.164 41.9649 164.047 42.3168 163.695 42.5514L164.516 43.4899L166.628 41.613L166.041 40.7919Z" fill="black"/>
<path d="M159.12 42.1993C159.12 42.4339 159.003 42.5512 158.768 42.5512H156.891C156.657 42.5512 156.54 42.4339 156.54 42.1993V41.1436L155.367 41.0263V42.3166C155.367 43.255 155.601 43.4896 156.54 43.4896H159.003C159.707 43.4896 160.176 43.255 160.176 42.5512V41.6128L159.003 41.3782L159.12 42.1993Z" fill="black"/>
<path d="M153.372 42.7858L154.428 43.3723C154.78 42.7858 155.132 42.082 155.484 41.3782L154.545 41.0263C154.076 41.6128 153.724 42.1993 153.372 42.7858Z" fill="black"/>
<path d="M140.469 36.217C141.29 36.0997 142.229 35.8651 143.05 35.6305L142.581 34.5748C141.525 34.9267 140.469 35.1613 139.296 35.2786V39.0322C139.296 39.9706 139.179 40.9091 138.944 41.7302C138.71 41.3783 138.475 40.9091 138.24 40.5572L137.419 40.9091V40.4399H138.944V39.3841H137.419V38.6803H139.062V37.6246H138.123C138.24 37.2727 138.475 36.9208 138.592 36.4516L138.006 36.217H139.062V35.1613H137.419V34.3401L136.246 34.2228V35.2786H134.721V36.3343H135.66L135.073 36.5689L135.543 37.6246H134.487V38.6803H136.364V39.3841H134.721V40.4399H136.364V42.1994C136.364 42.434 136.246 42.434 136.129 42.434H135.543C135.777 41.9648 136.012 41.3783 136.246 40.9091L135.308 40.5572C135.073 41.261 134.721 41.9648 134.252 42.6686L135.308 43.1378L135.66 42.5513L135.777 43.607H136.598C137.419 43.607 137.654 43.3724 137.654 42.5513V41.261C137.889 41.6129 138.006 42.0821 138.358 42.5513L139.062 42.1994C138.944 42.5513 138.71 43.0205 138.475 43.3724L139.531 43.8416C140.352 42.434 140.821 40.9091 140.704 39.2668V38.9149H141.525V43.7243H142.698V38.9149H143.519V37.8592H140.704L140.469 36.217ZM136.246 37.6246L136.716 37.39C136.481 37.0381 136.364 36.6862 136.129 36.3343H137.537C137.419 36.8035 137.185 37.2727 136.95 37.6246H136.246Z" fill="black"/>
<path d="M132.141 42.082C132.141 42.4339 132.023 42.5512 131.672 42.5512H130.616L130.733 43.607H132.141C132.962 43.607 133.196 43.255 133.196 42.5512V34.5747L132.023 34.4574L132.141 42.082Z" fill="black"/>
<path d="M131.32 41.261V35.2786L130.147 35.1613V36.9208C129.443 36.3343 128.856 35.7478 128.27 35.044C128.387 34.9267 128.387 34.8094 128.504 34.6921L127.449 34.2228C126.628 35.3959 125.689 36.5689 124.633 37.5073L125.455 38.3284L125.689 38.2111V42.1994C125.689 43.0205 126.041 43.3724 126.98 43.3724H129.091C129.677 43.3724 130.147 43.0205 130.147 42.5513V42.434V41.3783L128.974 41.1437V41.8475C128.974 42.0821 128.856 42.3167 128.622 42.3167H127.214C126.862 42.3167 126.862 42.1994 126.862 41.8475V38.7976H128.387V39.736C128.387 40.088 128.27 40.0879 128.035 40.0879H127.331L127.449 41.0264H128.27C129.091 41.0264 129.326 40.7918 129.326 40.0879V37.8592L128.387 37.5073C128.27 37.6246 128.035 37.7419 127.801 37.7419H126.158C126.745 37.1554 127.214 36.6862 127.683 35.9824C128.27 36.6862 128.856 37.2727 129.56 37.9765L130.264 37.2727V41.3783H131.32V41.261Z" fill="black"/>
<path d="M195.718 38.3284H199.355V37.39H200.176V35.3959L199.12 35.044C198.886 35.1613 198.651 35.2786 198.416 35.2786H198.064V34.3401L196.891 34.2228V35.2786H194.897V37.39H195.718V38.3284ZM199.003 36.4516V37.2727H195.953V36.4516H199.003Z" fill="black"/>
<path d="M165.806 36.2169C165.22 35.5131 164.868 35.0439 164.399 34.4574L163.46 35.0439C163.93 35.7477 164.282 36.2169 164.868 36.9207L165.806 36.2169Z" fill="black"/>
<path d="M162.17 36.5689H160.059C160.176 36.4516 160.176 36.3343 160.293 36.0996L159.707 35.9823H161.584V35.1612H158.416V34.4574L157.126 34.3401V35.1612H153.959V36.0996H155.836L155.367 36.217C155.484 36.3343 155.484 36.4516 155.601 36.6862H153.49V37.5073H162.17V36.5689ZM156.657 35.9823H159.003C158.886 36.217 158.768 36.3343 158.651 36.5689H157.126C156.891 36.4516 156.774 36.217 156.657 35.9823Z" fill="black"/>
<path d="M160.293 41.4955C160.528 42.082 160.762 42.6685 161.232 43.3723L162.287 42.9031C161.935 42.1993 161.701 41.7301 161.349 41.0263L160.293 41.4955Z" fill="black"/>
<path d="M175.073 41.2612V37.5075L174.018 37.1556C173.783 37.2729 173.548 37.3902 173.314 37.3902H172.61V38.5632H173.783V41.6131C173.783 41.965 173.666 42.3169 173.314 42.5515L174.135 43.4899L176.598 41.3785L175.894 40.5573L175.073 41.2612Z" fill="black"/>
<path d="M179.179 34.4574L177.889 34.3401V37.5073H175.543V38.7976H177.889V43.607H179.179V38.7976H181.408V37.5073H179.179V34.4574Z" fill="black"/>
<path d="M189.032 39.0323V38.0939L187.977 37.742C187.859 37.8593 187.625 37.9766 187.39 37.9766H183.754V39.0323H187.155C186.686 39.2669 186.334 39.5015 185.865 39.7361V40.088H182.111V41.261H185.865V42.1994C185.865 42.434 185.748 42.5513 185.513 42.5513H184.34L184.457 43.7244H185.865C186.804 43.7244 187.038 43.3725 187.038 42.6686V41.4956H190.557V40.3226H187.155C187.859 39.8534 188.446 39.5015 189.032 39.0323Z" fill="black"/>
<path d="M175.777 36.0996C175.191 35.3958 174.721 34.8093 174.37 34.3401L173.431 34.9266C173.9 35.5131 174.37 36.217 174.839 36.9208L175.777 36.0996Z" fill="black"/>
<path d="M161.114 37.9766L160.059 37.6247C159.824 37.742 159.589 37.8593 159.355 37.8593H154.428V40.9091H157.478L157.009 41.1437C157.243 41.4957 157.478 41.9649 157.713 42.3168L158.768 41.7303C158.534 41.3784 158.416 41.1437 158.182 40.7918H160.997V37.9766H161.114ZM155.601 38.6804H159.941V39.0323H155.601V38.6804ZM160.059 40.088H155.718V39.7361H160.059V40.088Z" fill="black"/>
<rect x="62.5" y="8.92857" width="0.892857" height="32.1429" fill="black"/>
</svg>
