<svg width="140" height="36" viewBox="0 0 140 36" fill="none" xmlns="http://www.w3.org/2000/svg">
<path d="M6.65797 12.7177C7.35895 12.7177 7.95979 12.6176 8.41042 12.4674C9.2616 12.167 9.66216 11.6162 9.66216 10.8151C9.66216 10.014 9.46188 9.96389 9.06132 9.71355C8.66077 9.4632 8.00986 9.21285 7.1086 9.06264L5.60651 8.71215C4.10441 8.36166 3.05294 8.01117 2.50218 7.61061C1.55085 6.9597 1.05015 5.90824 1.05015 4.50628C1.05015 3.10433 1.50078 2.153 2.45211 1.30182C3.40343 0.450628 4.75532 0 6.6079 0C8.46049 0 9.41181 0.400558 10.5133 1.20168C11.5648 2.00279 12.1657 3.1544 12.2157 4.70656H9.31167C9.31167 3.85538 8.86104 3.20447 8.16007 2.85398C7.70944 2.60363 7.1086 2.50349 6.40762 2.50349C5.70665 2.50349 5.00567 2.6537 4.55504 2.95412C4.10441 3.25454 3.85406 3.70517 3.85406 4.25593C3.85406 4.8067 4.10441 5.15719 4.55504 5.40754C4.85546 5.55775 5.4563 5.75803 6.45769 6.00838L8.96118 6.60922C10.0627 6.85957 10.8638 7.21005 11.4146 7.66068C12.2658 8.36166 12.7164 9.31299 12.7164 10.6148C12.7164 11.9166 12.2157 13.0182 11.2143 13.9194C10.2129 14.8207 8.7609 15.2212 6.95839 15.2212C5.15588 15.2212 3.60371 14.7706 2.55225 13.9194C1.50078 13.0682 0.950012 11.8665 0.950012 10.3645H3.80399C3.90413 11.0154 4.05434 11.5161 4.35476 11.8165C4.85546 12.4173 5.65658 12.7177 6.85825 12.7177H6.65797Z" fill="black"/>
<path d="M23.4314 5.50755C24.3326 6.65916 24.7833 7.96097 24.7833 9.51313C24.7833 11.0653 24.3326 12.4172 23.4314 13.5187C22.5301 14.6203 21.1782 15.171 19.3257 15.171C17.4731 15.171 16.1212 14.6203 15.2199 13.5187C14.3187 12.4172 13.868 11.0653 13.868 9.51313C13.868 7.96097 14.3187 6.65916 15.2199 5.50755C16.1212 4.35594 17.4731 3.80518 19.3257 3.80518C21.1782 3.80518 22.5301 4.35594 23.4314 5.50755ZM19.3257 6.15846C18.5245 6.15846 17.8736 6.45888 17.423 7.00964C16.9724 7.56041 16.7721 8.4116 16.7721 9.46307C16.7721 10.5145 16.9724 11.3657 17.423 11.9165C17.8736 12.5173 18.4745 12.7677 19.3257 12.7677C20.1768 12.7677 20.7777 12.4673 21.2283 11.9165C21.6789 11.3156 21.8792 10.5145 21.8792 9.46307C21.8792 8.4116 21.6789 7.56041 21.2283 7.00964C20.7777 6.45888 20.1768 6.15846 19.3257 6.15846Z" fill="black"/>
<path d="M33.6456 13.3181C33.6456 13.3181 33.5455 13.4683 33.4453 13.6185C33.3452 13.7687 33.195 13.9189 33.0948 14.0691C32.6442 14.4697 32.2436 14.72 31.8431 14.8702C31.4425 15.0204 30.9418 15.0705 30.3911 15.0705C28.7888 15.0705 27.7374 14.5197 27.1866 13.3681C26.8862 12.7673 26.736 11.816 26.736 10.6143V4.20534H29.5899V10.6143C29.5899 11.2151 29.64 11.6657 29.7902 11.9662C30.0406 12.5169 30.5413 12.7673 31.2923 12.7673C32.0434 12.7673 32.8945 12.3667 33.245 11.6157C33.4453 11.2151 33.4954 10.6644 33.4954 9.96337V4.15527H36.2993V14.8201H33.5955V13.3181H33.6456Z" fill="black"/>
<path d="M44.0601 6.20875C43.1088 6.20875 42.4579 6.60931 42.1074 7.41043C41.9071 7.81098 41.8571 8.36175 41.8571 9.01266V14.7707H39.1032V4.15589H41.807V5.70805C42.1575 5.15728 42.508 4.75673 42.8084 4.50638C43.3591 4.05575 44.1102 3.85547 45.0115 3.85547C45.9127 3.85547 47.0142 4.15589 47.7152 4.70666C48.4162 5.25742 48.7667 6.25882 48.7667 7.56064V14.7206H45.9127V8.26161C45.9127 7.71084 45.8626 7.26022 45.7124 6.9598C45.4621 6.40903 44.9113 6.15868 44.1603 6.15868H44.0601V6.20875Z" fill="black"/>
<path d="M60.9837 0.400391V14.8205H58.2799V13.3685C57.8794 14.0194 57.4288 14.47 56.9281 14.7704C56.4274 15.0708 55.7765 15.2211 55.0254 15.2211C53.7737 15.2211 52.7222 14.7204 51.871 13.719C51.0198 12.7176 50.6193 11.4157 50.6193 9.86359C50.6193 8.31142 51.0198 6.60905 51.871 5.55758C52.7222 4.50611 53.8237 4.00542 55.2257 4.00542C56.6276 4.00542 56.4274 4.15563 56.9281 4.40598C57.4288 4.65632 57.8293 5.10695 58.1297 5.60765V0.400391H60.9837ZM53.4732 9.56317C53.4732 10.5646 53.6735 11.3156 54.0741 11.9164C54.4746 12.5173 55.0254 12.8177 55.8265 12.8177C56.6276 12.8177 57.2285 12.5173 57.629 11.9164C58.0296 11.3156 58.2299 10.5646 58.2299 9.61324C58.2299 8.66191 57.8794 7.36009 57.2285 6.80933C56.8279 6.45884 56.3773 6.30863 55.8265 6.30863C55.0254 6.30863 54.4246 6.60905 54.024 7.20989C53.6235 7.81072 53.4732 8.61184 53.4732 9.5131V9.56317Z" fill="black"/>
<path d="M74.5026 12.7177C75.2035 12.7177 75.8044 12.6176 76.255 12.4674C77.1062 12.167 77.5068 11.6162 77.5068 10.8151C77.5068 10.014 77.3065 9.96389 76.9059 9.71355C76.5054 9.4632 75.8545 9.21285 74.9532 9.06264L73.4511 8.71215C71.949 8.36166 70.8975 8.01117 70.3468 7.61061C69.3954 6.9597 68.8948 5.90824 68.8948 4.50628C68.8948 3.10433 69.3454 2.153 70.2967 1.30182C71.248 0.450628 72.5999 0 74.4525 0C76.3051 0 77.2564 0.400558 78.3579 1.20168C79.4094 2.00279 80.0103 3.1544 80.0603 4.70656H77.1563C77.1062 3.85538 76.7056 3.20447 76.0047 2.85398C75.554 2.60363 74.9532 2.50349 74.2522 2.50349C73.5512 2.50349 72.8503 2.6537 72.3996 2.95412C71.949 3.25454 71.6987 3.70517 71.6987 4.25593C71.6987 4.8067 71.949 5.15719 72.3996 5.40754C72.7001 5.55775 73.3009 5.75803 74.3023 6.00838L76.8058 6.60922C77.9073 6.85957 78.7084 7.21005 79.2592 7.66068C80.1104 8.36166 80.561 9.31299 80.561 10.6148C80.561 11.9166 80.0603 13.0182 79.0589 13.9194C78.0575 14.8207 76.6055 15.2212 74.803 15.2212C73.0005 15.2212 71.4483 14.7706 70.3968 13.9194C69.3454 13.0682 68.7946 11.8665 68.7946 10.3645H71.6486C71.7487 11.0154 71.8989 11.5161 72.1994 11.8165C72.7001 12.4173 73.5012 12.7177 74.7028 12.7177H74.5026Z" fill="black"/>
<path d="M87.3204 12.8178V14.9207H86.0186C84.7168 15.0209 83.8155 14.7705 83.3148 14.2698C83.0144 13.9694 82.8642 13.4687 82.8642 12.8178V6.25867H81.3621V4.25588H82.8642V1.30176H85.6181V4.25588H87.3705V6.25867H85.6181V11.8665C85.6181 12.3171 85.6681 12.5675 85.7683 12.6676C85.8684 12.7677 86.2189 12.8178 86.7697 12.8178C87.3204 12.8178 86.9199 12.8178 87.02 12.8178H87.3204Z" fill="black"/>
<path d="M95.9325 13.3181C95.9325 13.3181 95.8323 13.4683 95.7322 13.6185C95.632 13.7687 95.4818 13.9189 95.3817 14.0691C94.9311 14.4697 94.5305 14.72 94.13 14.8702C93.7294 15.0204 93.2287 15.0705 92.6779 15.0705C91.0757 15.0705 90.0242 14.5197 89.4735 13.3681C89.173 12.7673 89.0228 11.816 89.0228 10.6143V4.20534H91.8768V10.6143C91.8768 11.2151 91.9269 11.6657 92.0771 11.9662C92.3274 12.5169 92.8281 12.7673 93.5792 12.7673C94.3302 12.7673 95.1814 12.3667 95.5319 11.6157C95.7322 11.2151 95.7823 10.6644 95.7823 9.96337V4.15527H98.5862V14.8201H95.8824V13.3181H95.9325Z" fill="black"/>
<path d="M111.003 0.400391V14.8205H108.3V13.3685C107.899 14.0194 107.448 14.47 106.948 14.7704C106.447 15.0708 105.796 15.2211 105.045 15.2211C103.793 15.2211 102.742 14.7204 101.891 13.719C101.04 12.7176 100.639 11.4157 100.639 9.86359C100.639 8.31142 101.04 6.60905 101.891 5.55758C102.742 4.50611 103.843 4.00542 105.245 4.00542C106.647 4.00542 106.447 4.15563 106.948 4.40598C107.448 4.65632 107.849 5.10695 108.149 5.60765V0.400391H111.003ZM103.493 9.56317C103.493 10.5646 103.693 11.3156 104.094 11.9164C104.494 12.5173 105.045 12.8177 105.846 12.8177C106.647 12.8177 107.248 12.5173 107.649 11.9164C108.049 11.3156 108.25 10.5646 108.25 9.61324C108.25 8.66191 107.899 7.36009 107.248 6.80933C106.848 6.45884 106.397 6.30863 105.846 6.30863C105.045 6.30863 104.444 6.60905 104.044 7.20989C103.643 7.81072 103.493 8.61184 103.493 9.5131V9.56317Z" fill="black"/>
<path d="M116.411 0.300781V2.85434H113.607V0.300781H116.411ZM116.411 4.15616V14.821H113.607V4.15616H116.411Z" fill="black"/>
<path d="M128.227 11.6664C128.177 12.3173 127.827 12.9181 127.226 13.569C126.325 14.6205 125.023 15.1212 123.371 15.1212C121.718 15.1212 120.817 14.6705 119.766 13.8194C118.714 12.9682 118.214 11.5162 118.214 9.56343C118.214 7.6107 118.664 6.30889 119.615 5.30749C120.567 4.3061 121.768 3.85547 123.271 3.85547C124.773 3.85547 124.973 4.00568 125.674 4.35617C126.375 4.70666 126.976 5.20735 127.426 5.90833C127.827 6.55924 128.127 7.26022 128.227 8.1114C128.278 8.6121 128.328 9.31308 128.328 10.2143H121.017C121.017 11.2658 121.368 12.0168 122.019 12.4675C122.419 12.7178 122.87 12.868 123.421 12.868C123.972 12.868 124.472 12.7178 124.823 12.3673C125.023 12.1671 125.173 11.9668 125.323 11.6163H128.227V11.6664ZM125.474 8.41182C125.474 7.66077 125.223 7.11001 124.823 6.75952C124.422 6.40903 123.921 6.20875 123.321 6.20875C122.72 6.20875 122.169 6.40903 121.819 6.80959C121.468 7.21015 121.218 7.76091 121.168 8.46189H125.524H125.474V8.41182Z" fill="black"/>
<path d="M137.591 4.65583C138.442 5.2066 138.892 6.10786 139.043 7.40967H136.239C136.239 7.05918 136.088 6.75876 135.938 6.55849C135.638 6.15793 135.087 6.00772 134.386 6.00772C133.685 6.00772 133.335 6.10786 133.084 6.30814C132.834 6.50842 132.684 6.70869 132.684 6.95904C132.684 7.20939 132.834 7.50981 133.084 7.66002C133.335 7.81023 134.336 8.06058 135.988 8.41107C137.09 8.66142 137.941 9.06198 138.492 9.61274C139.043 10.1635 139.293 10.8144 139.293 11.6155C139.293 12.4167 138.892 13.5182 138.091 14.2192C137.29 14.9201 136.088 15.2206 134.436 15.2206C132.784 15.2206 131.532 14.8701 130.731 14.1691C129.93 13.4681 129.529 12.5669 129.529 11.4653H132.333C132.383 11.966 132.533 12.3165 132.734 12.5168C133.084 12.8673 133.735 13.0676 134.636 13.0676C135.538 13.0676 135.638 12.9674 135.938 12.8172C136.239 12.667 136.439 12.4167 136.439 12.0662C136.439 11.7157 136.289 11.5154 136.038 11.3652C135.788 11.215 134.787 10.9146 133.134 10.514C131.933 10.2136 131.081 9.86309 130.581 9.41247C130.08 8.96184 129.83 8.31093 129.83 7.50981C129.83 6.70869 130.23 5.65723 130.981 4.95625C131.732 4.25527 132.834 3.90479 134.236 3.90479C135.638 3.90479 136.639 4.15513 137.49 4.7059H137.591V4.65583Z" fill="black"/>
<path d="M10.263 31.4938C9.46186 31.9945 8.51054 32.2449 7.30886 32.2449C5.40621 32.2449 3.85405 31.594 2.6023 30.2421C1.35056 28.8902 0.699646 27.0877 0.699646 24.7845C0.699646 22.4813 1.35056 20.5786 2.6023 19.1767C3.85405 17.7747 5.60649 17.0737 7.70942 17.0737C9.81235 17.0737 11.014 17.5244 12.1156 18.4757C13.2171 19.427 13.868 20.5786 14.0182 21.9305H11.0641C10.8138 20.9291 10.263 20.2782 9.41179 19.8776C8.9111 19.6774 8.36033 19.5772 7.75949 19.5772C6.60788 19.5772 5.65656 20.0278 4.90551 20.879C4.15446 21.7803 3.80398 23.0821 3.80398 24.8346C3.80398 26.587 4.20453 27.8387 5.00565 28.5898C5.80677 29.3408 6.75809 29.6913 7.75949 29.6913C8.76089 29.6913 9.61207 29.3909 10.263 28.8401C10.9139 28.2393 11.3144 27.4883 11.4647 26.5369H8.10998V24.1336H14.1184V31.8443H12.1156L11.8151 30.0418C11.2143 30.7428 10.7136 31.1934 10.263 31.4938Z" fill="black"/>
<path d="M22.1295 23.7326C21.028 23.7326 20.2769 24.0831 19.8764 24.8342C19.6761 25.2347 19.5759 25.8856 19.5759 26.7368V31.8439H16.772V21.1791H19.4257V23.0316C19.8764 22.3307 20.2269 21.83 20.5273 21.5796C21.028 21.129 21.7289 20.9287 22.5801 20.9287C23.4313 20.9287 22.6803 20.9287 22.7303 20.9287H22.9807V23.7827H22.1295V23.7326Z" fill="black"/>
<path d="M33.4453 22.531C34.3466 23.6826 34.7972 24.9844 34.7972 26.5366C34.7972 28.0887 34.3466 29.4406 33.4453 30.5422C32.544 31.6437 31.1922 32.1945 29.3396 32.1945C27.487 32.1945 26.1351 31.6437 25.2338 30.5422C24.3326 29.4406 23.882 28.0887 23.882 26.5366C23.882 24.9844 24.3326 23.6826 25.2338 22.531C26.1351 21.3794 27.487 20.8286 29.3396 20.8286C31.1922 20.8286 32.544 21.3794 33.4453 22.531ZM29.3396 23.1819C28.5385 23.1819 27.8875 23.4823 27.4369 24.0331C26.9863 24.5838 26.786 25.435 26.786 26.4865C26.786 27.538 26.9863 28.3892 27.4369 28.9399C27.8875 29.5408 28.4884 29.7911 29.3396 29.7911C30.1908 29.7911 30.7916 29.4907 31.2422 28.9399C31.6929 28.3391 31.8931 27.538 31.8931 26.4865C31.8931 25.435 31.6929 24.5838 31.2422 24.0331C30.7916 23.4823 30.1908 23.1819 29.3396 23.1819Z" fill="black"/>
<path d="M43.6595 30.342L43.4592 30.6424C43.3591 30.7926 43.2089 30.9428 43.1087 31.093C42.6581 31.4936 42.2576 31.7439 41.857 31.8941C41.4564 32.0444 40.9557 32.0944 40.405 32.0944C38.8027 32.0944 37.7513 31.5437 37.2005 30.392C36.9001 29.7912 36.7499 28.8399 36.7499 27.6382V21.2293H39.6039V27.6382C39.6039 28.239 39.6539 28.6897 39.8041 28.9901C40.0545 29.5409 40.5552 29.7912 41.3062 29.7912C42.0573 29.7912 42.9085 29.3907 43.259 28.6396C43.4592 28.239 43.5093 27.6883 43.5093 26.9873V21.1792H46.3132V31.8441H43.6094V30.342H43.6595Z" fill="black"/>
<path d="M57.9795 22.3309C58.8307 23.2322 59.2813 24.5841 59.2813 26.3866C59.2813 28.1891 58.8808 29.6912 58.0296 30.6926C57.1784 31.694 56.0769 32.1446 54.7751 32.1446C53.4732 32.1446 53.2229 31.9443 52.6721 31.4937C52.3717 31.2434 52.0713 30.8929 51.7709 30.4422V36H49.017V21.1293H51.6707V22.6814C51.9711 22.2308 52.2716 21.8302 52.6221 21.5799C53.2229 21.0792 53.9739 20.8789 54.8251 20.8789C56.0769 20.8789 57.1283 21.3295 57.9795 22.2809V22.3309ZM56.3773 26.4867C56.3773 25.6856 56.177 24.9346 55.8265 24.2837C55.476 23.6327 54.8251 23.3323 54.024 23.3323C53.2229 23.3323 52.3216 23.833 51.9211 24.7844C51.7208 25.285 51.6207 25.936 51.6207 26.7371C51.6207 27.9888 51.9711 28.84 52.6221 29.3407C53.0226 29.6411 53.4732 29.7913 54.024 29.7913C54.5748 29.7913 55.3759 29.4909 55.7765 28.8901C56.177 28.2892 56.3773 27.4881 56.3773 26.4867Z" fill="black"/>
</svg>
