<svg width="258" height="48" viewBox="0 0 258 48" fill="none" xmlns="http://www.w3.org/2000/svg">
<path d="M15.8994 41.1654V33.4679C15.8634 32.9341 15.4132 32.5102 14.8685 32.5102L14.8923 32.4952C11.8749 32.4278 9.11981 32.1265 6.89384 31.6655C6.68767 31.6257 6.41216 31.6347 6.28946 31.8392C6.15946 32.0564 6.21967 32.2206 6.28946 32.4789C6.36107 32.74 6.68767 33.8285 6.68767 33.8285C6.90069 34.7442 8.13318 34.9636 8.91728 35.1301L12.4273 35.8848C14.1209 36.2458 14.5812 37.5497 14.5812 39.2711V40.7872L14.5793 40.7985C14.5793 42.1408 14.3568 43.0063 13.4568 43.0457C12.3187 43.0986 11.4895 41.9725 11.047 40.9944C11.0351 40.9722 11.0237 40.9528 11.0169 40.932L11.0028 40.8998C10.9635 40.813 10.9311 40.7266 10.8988 40.6451C10.6 39.9104 9.92809 38.2925 9.92809 38.2925C9.92809 38.2925 9.84005 38.0012 9.69865 37.9066C9.5577 37.8075 9.4277 37.7732 9.25437 37.7732H8.0684L9.59921 43.0335C9.91212 44.1129 10.2944 45.3571 11.1533 46.1493C12.2097 47.1337 13.928 47.6653 16.2096 47.6653C18.4926 47.6653 20.2145 47.1337 21.2686 46.1493C22.1253 45.3571 22.5098 44.1129 22.825 43.0335L24.354 37.7732H23.1657C22.9906 37.7732 22.8624 37.8075 22.721 37.9066C22.5819 38.0012 22.4938 38.2925 22.4938 38.2925C22.4938 38.2925 21.8247 39.9104 21.5232 40.6451C21.4931 40.7266 21.4575 40.813 21.4169 40.8998L21.4064 40.932C21.3959 40.9528 21.3891 40.9722 21.3795 40.9944C20.9302 41.9725 20.1009 43.0986 18.9615 43.0457C18.0652 43.0063 17.8426 42.1408 17.8403 40.7985V40.7872V39.2711C17.8403 37.5497 18.3001 36.2458 19.9969 35.8848L23.5014 35.1301C24.2887 34.9636 25.5235 34.7442 25.732 33.8285C25.732 33.8285 26.0563 32.74 26.1325 32.4789C26.2018 32.2206 26.2602 32.0564 26.1325 31.8392C26.0088 31.6347 25.7343 31.6257 25.5281 31.6655C23.2998 32.1265 20.5461 32.4278 17.5278 32.4952L17.5543 32.5102C17.0092 32.5102 16.5595 32.9341 16.5189 33.4679V41.1654C16.5189 41.3364 16.3811 41.4762 16.2096 41.4762C16.0408 41.4762 15.8994 41.3364 15.8994 41.1654Z" fill="#ED7221"/>
<path d="M16.3905 1.73233C16.3905 1.73233 14.0058 3.05023 13.1524 4.83368C12.7889 5.58741 12.9973 6.06969 14.3758 5.22683C16.3349 4.0261 18.1056 3.12217 20.2103 2.38472C22.5265 1.56946 26.7768 0.581369 27.0825 0.728405C27.207 0.788578 27.2143 1.02474 26.9712 1.24779C20.9533 6.73022 20.3051 10.816 21.945 11.4616C22.7555 11.7797 24.1235 11.5951 25.3427 11.1988C26.5611 10.8034 27.7516 10.2948 29.1159 10.2523C32.3262 10.1532 33.6732 16.1931 30.2047 21.9171C28.2611 25.1238 23.0821 29.2065 22.7113 29.0549C22.5448 28.9907 22.4914 28.8093 22.5607 28.5125C22.6095 28.3175 24.4683 24.2602 22.9964 23.6168C22.7669 23.5159 22.1917 23.6779 21.6457 24.9655C20.9442 26.6286 20.4046 26.9367 20.1154 26.8679C19.8266 26.7987 19.9297 26.3381 19.9758 26.0269C20.02 25.7147 20.0853 25.4568 19.9115 25.5677C19.7377 25.6799 18.086 27.5294 17.5624 27.4855C17.3776 27.4683 17.259 27.2733 17.3794 26.9964C17.4976 26.7241 17.6226 26.3531 17.6226 26.3531C17.6226 26.3531 14.7717 29.1006 11.2886 29.7589C11.0282 29.8082 10.3335 29.9761 10.1131 29.8589C9.99865 29.7992 9.9097 29.511 10.1369 29.3617C10.3613 29.211 14.051 27.3167 15.647 24.6506C16.1287 23.8412 16.1429 23.4286 16.0129 23.2146C15.6931 22.6649 14.1208 23.2069 13.0876 23.6422C12.0545 24.0801 10.5072 24.9714 8.54082 25.3035C6.10184 25.7147 3.19258 24.9818 1.69143 23.1255C-0.039624 20.9833 -0.147273 18.8764 0.0981303 16.7387C0.869463 10.0442 7.32247 5.79643 9.56212 4.42966C12.2643 2.77968 16.2738 1.06139 16.5826 1.18445C16.7404 1.24779 16.8097 1.48666 16.3905 1.73233Z" fill="#ED7221"/>
<path d="M65.9002 16.6055V32.3999C65.9002 36.1568 65.9974 37.8471 67.1163 39.322C68.2393 40.8425 70.1897 41.5628 72.0914 41.5628C73.8936 41.5628 76.3303 40.8425 77.4027 38.8175C78.132 37.5919 78.4751 36.2826 78.4751 32.3583V16.6055H82.7163V32.485C82.7163 34.4697 83.5939 44.8999 70.9191 44.8999C69.1174 44.8999 63.5584 44.6877 60.8325 39.9142C59.855 38.2257 59.6579 36.2826 59.6579 33.1166V16.6055H65.9002Z" fill="#264346"/>
<path d="M101.144 20.3627C99.5367 19.8139 98.0753 19.3922 96.1713 19.3922C93.102 19.3922 91.3942 20.7843 91.3942 22.6868C91.3942 24.0386 92.2727 25.3045 95.2445 27.2467L97.1949 28.5565C101.29 31.2579 104.067 33.2417 104.067 37.1289C104.067 41.4762 100.171 44.8974 93.98 44.8974C90.3688 44.8974 87.4504 43.613 85.8407 42.8977L85.8384 39.2399L87.7387 40.1683C89.5441 40.9713 91.4416 41.7305 93.8318 41.7305C97.0489 41.7305 98.5118 39.9566 98.5118 38.2699C98.5118 36.4521 97.0489 35.2704 94.2232 33.3698L92.2727 32.0184C88.8147 29.7395 85.8407 27.372 85.8407 23.6169C85.8407 19.4759 90.0308 16.2262 95.8794 16.2262C98.3275 16.2262 100.341 16.665 101.892 17.2143L101.897 20.7051L101.144 20.3627Z" fill="#264346"/>
<path d="M54.2842 20.3627C52.6768 19.8139 51.2149 19.3922 49.3137 19.3922C46.2425 19.3922 44.5347 20.7843 44.5347 22.6868C44.5347 24.0386 45.4128 25.3045 48.3873 27.2467L50.3373 28.5565C54.4302 31.2579 57.2099 33.2417 57.2099 37.1289C57.2099 41.4762 53.309 44.8974 47.1196 44.8974C43.5088 44.8974 40.5905 43.613 38.9807 42.8977L38.9785 39.2399L40.8801 40.1683C42.6841 40.9713 44.584 41.7305 46.9741 41.7305C50.1913 41.7305 51.6505 39.9566 51.6505 38.2699C51.6505 36.4521 50.1913 35.2704 47.3632 33.3698L45.4128 32.0184C41.9525 29.7395 38.9807 27.372 38.9807 23.6169C38.9807 19.4759 43.1708 16.2262 49.0218 16.2262C51.4676 16.2262 53.4851 16.665 55.035 17.2143L55.0369 20.7051L54.2842 20.3627Z" fill="#264346"/>
<path d="M127.586 16.6054V19.7715H119.204V44.4746H113.013V19.7715H104.579V16.6054H127.586Z" fill="#264346"/>
<path d="M130.985 37.0521C131.07 38.2876 131.415 39.5214 132.295 40.4394C133.237 41.417 134.514 41.7414 135.843 41.7414C137.648 41.7414 139.251 41.1537 140.683 40.0661L141.31 39.5902V43.1534L141.143 43.2711C139.409 44.4894 137.241 44.8658 135.156 44.8658C132.883 44.8658 130.819 44.2053 129.289 42.4906C127.69 40.7022 127.19 38.3383 127.19 36.0043C127.19 33.5965 127.848 31.3706 129.482 29.5582C131.013 27.8603 132.934 26.9943 135.233 26.9943C137.309 26.9943 139.186 27.6078 140.574 29.1836C142.037 30.8467 142.484 33.0522 142.484 35.2021V37.0521H130.985ZM158.45 43.6841C157.005 44.5451 155.358 44.8658 153.688 44.8658C151.363 44.8658 149.28 44.1587 147.663 42.4694C146.035 40.7651 145.382 38.6396 145.382 36.3124C145.382 33.7919 146.056 31.4326 147.833 29.5695C149.584 27.7295 151.87 26.9943 154.392 26.9943C155.779 26.9943 157.188 27.2088 158.439 27.8327L158.652 27.9394V31.8035L158.031 31.3498C156.944 30.5594 155.74 30.1576 154.392 30.1576C152.898 30.1576 151.617 30.6422 150.61 31.7484C149.514 32.9491 149.141 34.4882 149.141 36.0749C149.141 37.5733 149.466 39.0957 150.515 40.2281C151.504 41.2904 152.789 41.7007 154.228 41.7007C155.636 41.7007 156.892 41.2139 158.015 40.3864L158.638 39.9263V43.5706L158.45 43.6841ZM165.61 29.3216C166.865 27.8028 168.537 26.9943 170.65 26.9943C175.074 26.9943 176.595 30.0151 176.595 34.0376V44.4817H172.911V34.704C172.911 32.3872 172.336 30.1576 169.61 30.1576C168.454 30.1576 167.519 30.5965 166.765 31.4647C165.934 32.4207 165.61 33.5852 165.61 34.8348V44.4817H161.913V19.5348H165.61V29.3216ZM138.774 33.9598C138.722 32.9672 138.482 31.9424 137.822 31.1756C137.142 30.3861 136.217 30.0966 135.186 30.0966C134.101 30.0966 133.211 30.5019 132.453 31.2661C131.706 32.0207 131.267 32.9491 131.044 33.9598H138.774Z" fill="#264346"/>
<path d="M187.45 18.0287C187.417 17.66 187.269 17.375 187.01 17.175C186.753 16.9733 186.405 16.8742 185.967 16.8742C185.518 16.8742 185.177 16.9615 184.943 17.1316C184.712 17.3049 184.593 17.5587 184.593 17.8876C184.593 18.1147 184.67 18.2835 184.826 18.3952C184.983 18.5051 185.293 18.6178 185.761 18.7259L186.79 18.9693C187.339 19.0992 187.732 19.2887 187.966 19.5453C188.205 19.7977 188.323 20.1551 188.323 20.6166C188.323 21.1473 188.119 21.5667 187.716 21.8779C187.308 22.1892 186.761 22.3444 186.067 22.3444C185.3 22.3444 184.698 22.1652 184.265 21.8078C183.843 21.4554 183.633 20.9713 183.633 20.3592V20.3157H184.362C184.379 20.7406 184.531 21.0668 184.83 21.2966C185.127 21.5287 185.538 21.6436 186.069 21.6436C186.56 21.6436 186.933 21.5599 187.186 21.3907C187.438 21.2278 187.568 20.9808 187.568 20.656C187.568 20.3755 187.482 20.1664 187.315 20.0294C187.151 19.8991 186.815 19.7715 186.312 19.6529L185.282 19.4082C184.765 19.2865 184.394 19.1177 184.172 18.8997C183.952 18.682 183.841 18.3812 183.841 17.9975C183.841 17.4356 184.031 16.9923 184.415 16.6638C184.8 16.3367 185.316 16.1725 185.97 16.1725C186.632 16.1725 187.157 16.3367 187.551 16.6674C187.943 16.9972 188.156 17.4497 188.181 18.0287H187.45ZM191.202 22.2951C190.609 22.2951 190.13 22.0883 189.761 21.6735C189.393 21.2599 189.21 20.7152 189.21 20.0456C189.21 19.3715 189.393 18.8295 189.761 18.4138C190.13 18.0002 190.609 17.793 191.202 17.793C191.799 17.793 192.284 18.0002 192.649 18.4138C193.016 18.8295 193.199 19.3715 193.199 20.0456C193.199 20.7152 193.016 21.2599 192.649 21.6735C192.284 22.0883 191.799 22.2951 191.202 22.2951ZM191.202 21.678C191.582 21.678 191.883 21.5287 192.105 21.2346C192.332 20.9405 192.441 20.5456 192.441 20.0456C192.441 19.5462 192.332 19.1498 192.105 18.8535C191.883 18.5594 191.582 18.411 191.202 18.411C190.822 18.411 190.52 18.5594 190.298 18.8535C190.074 19.1498 189.965 19.5462 189.965 20.0456C189.965 20.5456 190.074 20.9405 190.298 21.2346C190.52 21.5287 190.822 21.678 191.202 21.678ZM194.982 17.9229V20.6673C194.982 21.022 195.051 21.283 195.191 21.4391C195.327 21.5965 195.554 21.678 195.866 21.678C196.212 21.678 196.487 21.5427 196.689 21.2785C196.893 21.0107 196.993 20.651 196.993 20.1927V17.9229H197.354H197.715V22.1811H197.375H197.027V21.5332C196.981 21.6106 196.927 21.6825 196.867 21.7517C196.562 22.1146 196.177 22.2951 195.716 22.2951C195.23 22.2951 194.867 22.1743 194.623 21.9327C194.379 21.6897 194.259 21.331 194.259 20.8464V17.9229H194.621H194.982ZM200.592 22.172C200.344 22.2109 200.163 22.2272 200.052 22.2272C199.737 22.2272 199.512 22.1607 199.383 22.0227C199.253 21.8847 199.188 21.6472 199.188 21.3093V18.5006H198.595V17.9229H199.188V16.7344H199.908V17.9229H200.592V18.5006H199.908V21.3083C199.908 21.4034 199.948 21.4803 200.025 21.5332C200.101 21.5907 200.202 21.6205 200.332 21.6205H200.592V22.172ZM201.509 22.1811V16.3367H201.87H202.232V18.4961L202.357 18.3378C202.667 17.9749 203.059 17.793 203.529 17.793C204.002 17.793 204.365 17.9206 204.622 18.1758C204.877 18.431 205.007 18.7924 205.007 19.2611V22.1811H204.645H204.284V19.4403C204.284 19.0865 204.214 18.8336 204.08 18.678C203.943 18.5214 203.723 18.4454 203.418 18.4454C203.054 18.4454 202.764 18.5753 202.551 18.8363C202.338 19.0992 202.232 19.453 202.232 19.8991V22.1811H201.87H201.509ZM208.036 22.2951C207.43 22.2951 206.952 22.1042 206.605 21.7237C206.257 21.3378 206.084 20.8116 206.084 20.1388C206.084 19.4222 206.269 18.8513 206.635 18.4282C207.001 18.0048 207.494 17.793 208.117 17.793C208.675 17.793 209.13 18.0021 209.472 18.4147C209.82 18.8295 209.989 19.3738 209.989 20.0456L209.982 20.3017H206.853C206.883 20.7256 206.98 21.0459 207.147 21.2703C207.348 21.54 207.668 21.678 208.106 21.678C208.379 21.678 208.62 21.6011 208.826 21.4472C209.032 21.2921 209.157 21.0993 209.202 20.8623H209.917C209.808 21.3287 209.595 21.6825 209.276 21.9264C208.953 22.172 208.543 22.2951 208.036 22.2951ZM209.243 19.7208C209.22 19.3277 209.12 19.02 208.944 18.8015C208.752 18.5594 208.465 18.4386 208.087 18.4386C207.707 18.4386 207.404 18.5753 207.177 18.858C206.998 19.0775 206.889 19.367 206.853 19.7208H209.243ZM211.168 22.1811V17.9229H211.506H211.854V18.6504C211.916 18.5377 211.98 18.4319 212.051 18.3396C212.321 17.9749 212.657 17.793 213.056 17.793C213.123 17.793 213.19 17.8071 213.259 17.8274V18.5626L213.112 18.5594C212.719 18.5594 212.418 18.6766 212.21 18.9074C211.995 19.1372 211.891 19.4679 211.891 19.8991V22.1811H211.529H211.168ZM214.017 22.1811V17.9229H214.357H214.705V18.5468L214.862 18.3378C215.175 17.9749 215.567 17.793 216.036 17.793C216.509 17.793 216.873 17.9206 217.13 18.1758C217.385 18.431 217.512 18.7924 217.512 19.2611V22.1811H217.15H216.79V19.5036C216.79 19.1304 216.717 18.8589 216.574 18.6938C216.426 18.5282 216.192 18.4454 215.868 18.4454C215.52 18.4454 215.247 18.5753 215.043 18.8363C214.839 19.0992 214.739 19.453 214.739 19.8991V22.1811H214.378H214.017ZM225.374 20.0402C225.374 20.7614 225.167 21.3287 224.76 21.7309C224.35 22.1408 223.784 22.3444 223.057 22.3444C222.299 22.3444 221.725 22.1476 221.329 21.7562C220.933 21.3654 220.734 20.7935 220.734 20.0402V16.3367H221.13H221.533V19.98C221.533 20.5239 221.662 20.9383 221.92 21.2219C222.179 21.5024 222.559 21.6436 223.057 21.6436C223.552 21.6436 223.933 21.5024 224.19 21.2219C224.449 20.9383 224.577 20.5239 224.577 19.98V16.3367H224.973H225.374V20.0402ZM226.763 22.1811V17.9229H227.104H227.451V18.5468L227.611 18.3378C227.922 17.9749 228.313 17.793 228.781 17.793C229.255 17.793 229.619 17.9206 229.874 18.1758C230.131 18.431 230.258 18.7924 230.258 19.2611V22.1811H229.897H229.538V19.5036C229.538 19.1304 229.464 18.8589 229.32 18.6938C229.172 18.5282 228.938 18.4454 228.614 18.4454C228.264 18.4454 227.99 18.5753 227.789 18.8363C227.585 19.0992 227.486 19.453 227.486 19.8991V22.1811H227.124H226.763ZM231.567 22.1811V17.9229H231.928H232.29V22.1811H231.928H231.567ZM231.558 16.3299H232.296V17.142H231.558V16.3299ZM233.112 17.9229H233.534H233.955L235.104 21.4079L236.292 17.9229H236.688H237.086L235.488 22.1811H235.104H234.714L233.112 17.9229ZM239.644 22.2951C239.039 22.2951 238.562 22.1042 238.214 21.7237C237.867 21.3378 237.693 20.8116 237.693 20.1388C237.693 19.4222 237.877 18.8513 238.245 18.4282C238.611 18.0048 239.104 17.793 239.725 17.793C240.285 17.793 240.736 18.0021 241.084 18.4147C241.43 18.8295 241.601 19.3738 241.601 20.0456L241.592 20.3017H238.462C238.49 20.7256 238.587 21.0459 238.754 21.2703C238.958 21.54 239.278 21.678 239.716 21.678C239.991 21.678 240.232 21.6011 240.436 21.4472C240.642 21.2921 240.767 21.0993 240.813 20.8623H241.527C241.42 21.3287 241.205 21.6825 240.885 21.9264C240.565 22.172 240.151 22.2951 239.644 22.2951ZM240.85 19.7208C240.829 19.3277 240.73 19.02 240.554 18.8015C240.36 18.5594 240.072 18.4386 239.697 18.4386C239.319 18.4386 239.014 18.5753 238.786 18.858C238.609 19.0775 238.499 19.367 238.462 19.7208H240.85ZM242.775 22.1811V17.9229H243.118H243.463V18.6504C243.526 18.5377 243.588 18.4319 243.66 18.3396C243.933 17.9749 244.269 17.793 244.667 17.793C244.733 17.793 244.8 17.8071 244.87 17.8274V18.5626L244.724 18.5594C244.332 18.5594 244.031 18.6766 243.818 18.9074C243.606 19.1372 243.5 19.4679 243.5 19.8991V22.1811H243.137H242.775ZM248.08 19.1521C248.056 18.9178 247.961 18.735 247.79 18.6065C247.616 18.4766 247.385 18.411 247.095 18.411C246.794 18.411 246.567 18.4626 246.407 18.5662C246.252 18.6698 246.173 18.8209 246.173 19.02C246.173 19.1738 246.228 19.2842 246.34 19.3611C246.446 19.438 246.669 19.5163 246.993 19.5919L247.739 19.7665C248.158 19.8678 248.457 20.0081 248.635 20.185C248.811 20.3592 248.902 20.6053 248.902 20.9224C248.902 21.3427 248.747 21.678 248.441 21.9264C248.135 22.172 247.72 22.2951 247.199 22.2951C246.595 22.2951 246.143 22.1765 245.849 21.9399C245.55 21.7024 245.386 21.331 245.353 20.8211H246.043C246.078 21.122 246.187 21.3378 246.367 21.4735C246.549 21.6079 246.826 21.678 247.197 21.678C247.523 21.678 247.769 21.616 247.936 21.492C248.105 21.3712 248.188 21.1934 248.188 20.9613C248.188 20.8116 248.135 20.6994 248.024 20.6225C247.915 20.5478 247.693 20.4687 247.36 20.3904L246.616 20.2167C246.21 20.1203 245.923 19.9859 245.752 19.8149C245.58 19.6448 245.495 19.4068 245.495 19.0992C245.495 18.6983 245.638 18.3812 245.925 18.1473C246.215 17.9102 246.604 17.793 247.098 17.793C247.595 17.793 247.993 17.9147 248.291 18.1541C248.587 18.3952 248.744 18.7282 248.763 19.1521H248.08ZM249.969 22.1811V17.9229H250.33H250.692V22.1811H250.33H249.969ZM249.96 16.3299H250.699V17.142H249.96V16.3299ZM253.56 22.172C253.314 22.2109 253.133 22.2272 253.02 22.2272C252.703 22.2272 252.48 22.1607 252.351 22.0227C252.221 21.8847 252.154 21.6472 252.154 21.3093V18.5006H251.563V17.9229H252.154V16.7344H252.877V17.9229H253.56V18.5006H252.877V21.3083C252.877 21.4034 252.915 21.4803 252.992 21.5332C253.071 21.5907 253.173 21.6205 253.3 21.6205H253.56V22.172ZM257.953 17.9229L256.323 22.3213C256.07 22.9782 255.848 23.4067 255.654 23.6066C255.457 23.8089 255.16 23.9089 254.771 23.9089C254.641 23.912 254.523 23.8976 254.421 23.8663V23.199C254.53 23.2424 254.666 23.261 254.834 23.2642C254.996 23.2642 255.13 23.199 255.241 23.0646C255.352 22.9312 255.475 22.6842 255.614 22.3191L255.628 22.2512V22.2535L254.035 17.9229H254.444H254.857L256.003 21.4414L257.164 17.9229H257.557H257.953ZM185.513 32.7582C184.918 32.7582 184.441 32.5515 184.072 32.1379C183.702 31.7244 183.519 31.1797 183.519 30.507C183.519 29.8347 183.702 29.2913 184.072 28.8778C184.441 28.4643 184.918 28.2575 185.513 28.2575C186.11 28.2575 186.595 28.4643 186.961 28.8778C187.327 29.2913 187.51 29.8347 187.51 30.507C187.51 31.1797 187.327 31.7244 186.961 32.1379C186.595 32.5515 186.11 32.7582 185.513 32.7582ZM185.513 32.1402C185.893 32.1402 186.192 31.9918 186.417 31.6977C186.641 31.4037 186.755 31.0087 186.755 30.507C186.755 30.0107 186.641 29.6152 186.417 29.3212C186.192 29.0253 185.893 28.8755 185.513 28.8755C185.133 28.8755 184.832 29.0253 184.607 29.3212C184.385 29.6152 184.274 30.0107 184.274 30.507C184.274 31.0087 184.385 31.4037 184.607 31.6977C184.832 31.9918 185.133 32.1402 185.513 32.1402ZM189.439 28.9905V32.6447H189.08H188.719V28.9905H188.126V28.3955H188.719V27.6707C188.719 27.355 188.811 27.1183 188.999 26.9586C189.187 26.7989 189.467 26.7207 189.842 26.7207L190.155 26.7297V27.3731L189.873 27.364C189.734 27.364 189.629 27.4074 189.552 27.4961C189.478 27.5843 189.439 27.711 189.439 27.8761V28.3955H190.155V28.9905H189.439ZM196.55 28.4941C196.513 28.1245 196.37 27.8395 196.11 27.6386C195.853 27.4387 195.503 27.3373 195.068 27.3373C194.616 27.3373 194.275 27.4237 194.041 27.597C193.807 27.7694 193.694 28.0209 193.694 28.3516C193.694 28.5792 193.77 28.7471 193.926 28.8593C194.078 28.9687 194.394 29.08 194.859 29.1882L195.888 29.4316C196.439 29.565 196.83 29.7532 197.066 30.0107C197.303 30.2609 197.421 30.6183 197.421 31.0811C197.421 31.6118 197.219 32.0325 196.812 32.3424C196.409 32.6551 195.86 32.8089 195.168 32.8089C194.398 32.8089 193.796 32.6284 193.365 32.271C192.942 31.9199 192.731 31.4371 192.731 30.825V30.782H193.463C193.474 31.2041 193.629 31.5312 193.928 31.762C194.225 31.9918 194.637 32.1081 195.169 32.1081C195.658 32.1081 196.031 32.023 196.286 31.8574C196.536 31.69 196.666 31.4439 196.666 31.1205C196.666 30.8422 196.583 30.6305 196.416 30.4952C196.249 30.3622 195.916 30.2369 195.41 30.1161L194.382 29.8727C193.863 29.751 193.493 29.5822 193.27 29.3651C193.05 29.1456 192.939 28.8434 192.939 28.4598C192.939 27.9015 193.131 27.4581 193.514 27.1274C193.896 26.8012 194.414 26.6379 195.068 26.6379C195.73 26.6379 196.259 26.8012 196.65 27.1296C197.044 27.4626 197.254 27.9132 197.28 28.4941H196.55ZM201.938 31.1155C201.861 31.6484 201.671 32.0574 201.363 32.3388C201.058 32.6202 200.648 32.7582 200.138 32.7582C199.568 32.7582 199.114 32.556 198.776 32.1502C198.438 31.7448 198.267 31.196 198.267 30.5092C198.267 29.822 198.443 29.2777 198.795 28.8678C199.144 28.4598 199.617 28.2575 200.21 28.2575C200.726 28.2575 201.136 28.3955 201.444 28.6756C201.75 28.9547 201.915 29.3388 201.938 29.8292H201.245C201.217 29.5257 201.111 29.2913 200.928 29.1262C200.743 28.9597 200.497 28.8755 200.191 28.8755C199.823 28.8755 199.541 29.0226 199.332 29.3121C199.128 29.6017 199.021 30.0012 199.021 30.5092C199.021 31.049 199.119 31.4593 199.311 31.7312C199.504 32.0045 199.788 32.1402 200.168 32.1402C200.448 32.1402 200.682 32.0515 200.872 31.8737C201.06 31.6955 201.185 31.4417 201.245 31.1155H201.938ZM202.899 32.6447V28.3887H203.26H203.621V32.6447H203.26H202.899ZM202.887 26.7921H203.629V27.6051H202.887V26.7921ZM206.658 32.7582C206.051 32.7582 205.574 32.5677 205.229 32.1873C204.879 31.8036 204.705 31.2765 204.705 30.6011C204.705 29.8862 204.888 29.3167 205.257 28.8918C205.625 28.4693 206.119 28.2575 206.737 28.2575C207.3 28.2575 207.752 28.4643 208.096 28.8778C208.439 29.2927 208.613 29.8374 208.613 30.5092L208.606 30.7653H205.477C205.505 31.1888 205.602 31.5132 205.766 31.7357C205.97 32.0058 206.29 32.1402 206.728 32.1402C207.003 32.1402 207.244 32.0642 207.451 31.9126C207.654 31.7575 207.781 31.5643 207.825 31.3272H208.538C208.432 31.7923 208.217 32.147 207.897 32.3918C207.578 32.6374 207.163 32.7582 206.658 32.7582ZM207.862 30.1862C207.844 29.7921 207.742 29.4868 207.568 29.266C207.372 29.0226 207.087 28.9009 206.709 28.9009C206.329 28.9009 206.026 29.0384 205.799 29.3212C205.618 29.542 205.511 29.8301 205.477 30.1862H207.862ZM209.693 32.6447V28.3887H210.03H210.378V29.0135L210.535 28.8022C210.851 28.4394 211.24 28.2575 211.71 28.2575C212.185 28.2575 212.548 28.3842 212.803 28.6389C213.058 28.8941 213.187 29.2569 213.187 29.7279V32.6447H212.826H212.465V29.969C212.465 29.5944 212.393 29.3261 212.247 29.1583C212.101 28.9905 211.865 28.909 211.543 28.909C211.194 28.909 210.918 29.0384 210.716 29.3017C210.514 29.565 210.413 29.9161 210.413 30.3622V32.6447H210.051H209.693ZM217.85 31.1155C217.776 31.6484 217.588 32.0574 217.28 32.3388C216.975 32.6202 216.562 32.7582 216.053 32.7582C215.485 32.7582 215.032 32.556 214.691 32.1502C214.353 31.7448 214.181 31.196 214.181 30.5092C214.181 29.822 214.357 29.2777 214.71 28.8678C215.059 28.4598 215.534 28.2575 216.127 28.2575C216.643 28.2575 217.051 28.3955 217.359 28.6756C217.665 28.9547 217.83 29.3388 217.85 29.8292H217.163C217.134 29.5257 217.026 29.2913 216.842 29.1262C216.657 28.9597 216.412 28.8755 216.106 28.8755C215.742 28.8755 215.455 29.0226 215.249 29.3121C215.043 29.6017 214.937 30.0012 214.937 30.5092C214.937 31.049 215.034 31.4593 215.226 31.7312C215.418 32.0045 215.705 32.1402 216.083 32.1402C216.363 32.1402 216.599 32.0515 216.787 31.8737C216.977 31.6955 217.102 31.4417 217.163 31.1155H217.85ZM220.537 32.7582C219.931 32.7582 219.453 32.5677 219.105 32.1873C218.758 31.8036 218.584 31.2765 218.584 30.6011C218.584 29.8862 218.765 29.3167 219.136 28.8918C219.502 28.4693 219.995 28.2575 220.613 28.2575C221.176 28.2575 221.631 28.4643 221.973 28.8778C222.318 29.2927 222.489 29.8374 222.489 30.5092L222.483 30.7653H219.353C219.381 31.1888 219.478 31.5132 219.645 31.7357C219.847 32.0058 220.169 32.1402 220.606 32.1402C220.88 32.1402 221.121 32.0642 221.327 31.9126C221.533 31.7575 221.658 31.5643 221.702 31.3272H222.418C222.309 31.7923 222.094 32.147 221.776 32.3918C221.454 32.6374 221.042 32.7582 220.537 32.7582ZM221.739 30.1862C221.721 29.7921 221.619 29.4868 221.445 29.266C221.248 29.0226 220.964 28.9009 220.586 28.9009C220.208 28.9009 219.905 29.0384 219.675 29.3212C219.499 29.542 219.388 29.8301 219.353 30.1862H221.739ZM226.522 32.7582C226.103 32.7582 225.77 32.6501 225.524 32.4261C225.278 32.2035 225.156 31.9013 225.156 31.5222C225.156 31.1385 225.271 30.8377 225.501 30.6115C225.733 30.3862 226.071 30.2473 226.515 30.1898L227.497 30.0659C227.579 30.0613 227.653 30.046 227.726 30.0256C227.819 30.0039 227.891 29.9555 227.942 29.8831C227.993 29.8107 228.018 29.7189 228.018 29.613V29.5741C228.018 29.3456 227.93 29.1674 227.759 29.0366C227.583 28.909 227.34 28.8434 227.031 28.8434C226.733 28.8434 226.501 28.9113 226.337 29.0493C226.168 29.1836 226.066 29.3881 226.034 29.6591H225.369C225.401 29.1927 225.567 28.8412 225.864 28.6091C226.16 28.3747 226.585 28.2575 227.138 28.2575C227.659 28.2575 228.06 28.3715 228.331 28.5932C228.605 28.8172 228.741 29.1443 228.741 29.5741V31.9172C228.741 31.9864 228.764 32.0447 228.808 32.0873C228.853 32.1321 228.912 32.1542 228.987 32.1542C229.01 32.1542 229.04 32.1515 229.082 32.1461C229.126 32.1402 229.17 32.1321 229.218 32.1217V32.6388C229.146 32.6664 229.075 32.6867 228.998 32.703C228.917 32.7193 228.853 32.727 228.799 32.727C228.526 32.727 228.326 32.6523 228.204 32.503C228.125 32.4067 228.065 32.2687 228.032 32.0873C227.979 32.1542 227.917 32.218 227.847 32.2791C227.486 32.5999 227.043 32.7582 226.522 32.7582ZM228.018 30.9585V30.4979C227.885 30.5595 227.738 30.6033 227.576 30.6273L226.911 30.7241C226.564 30.7712 226.311 30.8513 226.152 30.9653C225.989 31.0788 225.911 31.2327 225.911 31.4281C225.911 31.667 225.975 31.8507 226.108 31.9791C226.237 32.1081 226.422 32.1723 226.664 32.1723C227.043 32.1723 227.363 32.0714 227.627 31.8647C227.805 31.7222 227.925 31.5602 227.984 31.3797C227.993 31.343 228.002 31.2878 228.007 31.2146C228.014 31.1385 228.018 31.0526 228.018 30.9585ZM230.173 32.6447V28.3887H230.513H230.858V29.0135L231.018 28.8022C231.333 28.4394 231.723 28.2575 232.192 28.2575C232.665 28.2575 233.029 28.3842 233.285 28.6389C233.541 28.8941 233.668 29.2569 233.668 29.7279V32.6447H233.309H232.947V29.969C232.947 29.5944 232.873 29.3261 232.728 29.1583C232.584 28.9905 232.348 28.909 232.024 28.909C231.676 28.909 231.401 29.0384 231.199 29.3017C230.995 29.565 230.895 29.9161 230.895 30.3622V32.6447H230.533H230.173ZM236.584 32.7582C236.012 32.7582 235.556 32.5469 235.213 32.1194C234.875 31.6946 234.706 31.1191 234.706 30.3966C234.706 29.7555 234.87 29.2397 235.199 28.8457C235.528 28.453 235.956 28.2575 236.484 28.2575C237.012 28.2575 237.427 28.4792 237.735 28.9217L237.791 29.0009V26.8003H238.152H238.513V32.6447H238.182H237.844V32.0642L237.751 32.194C237.455 32.5696 237.065 32.7582 236.584 32.7582ZM236.626 28.9009C236.223 28.9009 235.928 29.0271 235.74 29.2845C235.556 29.542 235.461 29.9496 235.461 30.507C235.461 31.0349 235.563 31.4371 235.762 31.7244C235.965 32.0067 236.253 32.1484 236.626 32.1484C236.975 32.1484 237.257 32.0185 237.473 31.7566C237.684 31.496 237.791 31.1476 237.791 30.7169C237.791 30.1369 237.692 29.6876 237.49 29.3741C237.288 29.0583 236.998 28.9009 236.626 28.9009ZM185.342 43.111V37.9651H183.348V37.6122V37.2657H188.133V37.6122V37.9651H186.138V43.111H185.742H185.342ZM190.741 43.2236C190.135 43.2236 189.66 43.0336 189.309 42.6504C188.965 42.2667 188.788 41.7397 188.788 41.0669C188.788 40.3512 188.974 39.7802 189.339 39.3577C189.708 38.9333 190.201 38.722 190.822 38.722C191.38 38.722 191.834 38.931 192.179 39.3418C192.524 39.7581 192.698 40.3028 192.698 40.9751L192.686 41.2312H189.557C189.588 41.6551 189.687 41.9754 189.851 42.1989C190.053 42.469 190.372 42.6047 190.813 42.6047C191.086 42.6047 191.327 42.5287 191.53 42.3758C191.737 42.221 191.862 42.0283 191.908 41.7912H192.621C192.515 42.2577 192.302 42.6115 191.98 42.8553C191.663 43.101 191.248 43.2236 190.741 43.2236ZM191.945 40.6498C191.927 40.2544 191.827 39.9508 191.649 39.7305C191.456 39.4875 191.169 39.3654 190.792 39.3654C190.412 39.3654 190.109 39.5043 189.882 39.787C189.703 40.0064 189.597 40.2955 189.557 40.6498H191.945ZM197.156 41.5777C197.081 42.1152 196.89 42.5233 196.583 42.8024C196.277 43.0847 195.866 43.2236 195.355 43.2236C194.79 43.2236 194.336 43.0191 193.998 42.6138C193.655 42.2093 193.488 41.6614 193.488 40.9751C193.488 40.2879 193.664 39.7409 194.014 39.3337C194.366 38.9265 194.836 38.722 195.428 38.722C195.946 38.722 196.355 38.8636 196.666 39.1401C196.969 39.4183 197.134 39.8042 197.156 40.2937H196.467C196.436 39.9902 196.328 39.7558 196.145 39.5902C195.962 39.4228 195.716 39.34 195.408 39.34C195.044 39.34 194.759 39.4862 194.553 39.7762C194.345 40.0662 194.243 40.4657 194.243 40.9751C194.243 41.5144 194.338 41.9225 194.53 42.1957C194.722 42.4667 195.009 42.6047 195.387 42.6047C195.67 42.6047 195.901 42.5147 196.091 42.3382C196.281 42.1613 196.404 41.9071 196.467 41.5777H197.156ZM198.093 43.111V37.2657H198.454H198.815V39.4251L198.94 39.2663C199.251 38.9039 199.644 38.722 200.113 38.722C200.585 38.722 200.951 38.8496 201.206 39.1043C201.46 39.3595 201.59 39.7214 201.59 40.1915V43.111H201.229H200.868V40.3684C200.868 40.0155 200.798 39.763 200.664 39.6065C200.527 39.4522 200.305 39.3722 199.999 39.3722C199.635 39.3722 199.348 39.5034 199.135 39.7649C198.922 40.0268 198.815 40.3806 198.815 40.829V43.111H198.454H198.093ZM202.873 43.111V38.8519H203.214H203.561V39.4776L203.719 39.2663C204.032 38.9039 204.423 38.722 204.891 38.722C205.366 38.722 205.73 38.8496 205.984 39.1043C206.241 39.3595 206.369 39.7214 206.369 40.1915V43.111H206.007H205.646V40.4326C205.646 40.0589 205.574 39.7879 205.428 39.6223C205.282 39.4559 205.048 39.3722 204.724 39.3722C204.374 39.3722 204.101 39.5034 203.899 39.7649C203.696 40.0268 203.594 40.3806 203.594 40.829V43.111H203.234H202.873ZM209.398 43.2236C208.803 43.2236 208.326 43.016 207.955 42.602C207.589 42.1871 207.404 41.6442 207.404 40.9724C207.404 40.3005 207.589 39.7558 207.955 39.3409C208.326 38.9288 208.803 38.722 209.398 38.722C209.998 38.722 210.477 38.9288 210.846 39.3409C211.212 39.7558 211.395 40.3005 211.395 40.9724C211.395 41.6442 211.212 42.1871 210.846 42.602C210.477 43.016 209.998 43.2236 209.398 43.2236ZM209.398 42.6047C209.775 42.6047 210.077 42.4577 210.304 42.1636C210.527 41.8695 210.639 41.4718 210.639 40.9724C210.639 40.4738 210.527 40.0788 210.304 39.782C210.077 39.4884 209.775 39.34 209.398 39.34C209.018 39.34 208.717 39.4884 208.495 39.782C208.272 40.0788 208.161 40.4738 208.161 40.9724C208.161 41.4718 208.272 41.8695 208.495 42.1636C208.717 42.4577 209.018 42.6047 209.398 42.6047ZM212.447 43.111V37.2657H212.808H213.167V43.111H212.808H212.447ZM216.215 43.2236C215.622 43.2236 215.142 43.016 214.774 42.602C214.406 42.1871 214.223 41.6442 214.223 40.9724C214.223 40.3005 214.406 39.7558 214.774 39.3409C215.142 38.9288 215.622 38.722 216.215 38.722C216.815 38.722 217.297 38.9288 217.662 39.3409C218.028 39.7558 218.211 40.3005 218.211 40.9724C218.211 41.6442 218.028 42.1871 217.662 42.602C217.297 43.016 216.815 43.2236 216.215 43.2236ZM216.215 42.6047C216.595 42.6047 216.896 42.4577 217.121 42.1636C217.345 41.8695 217.456 41.4718 217.456 40.9724C217.456 40.4738 217.345 40.0788 217.121 39.782C216.896 39.4884 216.595 39.34 216.215 39.34C215.835 39.34 215.536 39.4884 215.311 39.782C215.089 40.0788 214.978 40.4738 214.978 40.9724C214.978 41.4718 215.089 41.8695 215.311 42.1636C215.536 42.4577 215.835 42.6047 216.215 42.6047ZM220.82 44.3162C221.234 44.3162 221.549 44.185 221.765 43.928C221.98 43.667 222.089 43.2915 222.089 42.7956V42.6554L222.087 42.6599C221.787 43.0354 221.401 43.2236 220.924 43.2236C220.349 43.2236 219.893 43.0114 219.553 42.5848C219.214 42.1591 219.046 41.5827 219.046 40.8588C219.046 40.2186 219.21 39.7029 219.541 39.3106C219.879 38.9184 220.317 38.722 220.854 38.722C221.371 38.722 221.781 38.9428 222.082 39.3848L222.133 39.4617V38.8519H222.811V42.7974C222.809 43.5159 222.645 44.0475 222.323 44.3927C222.001 44.7374 221.505 44.9089 220.834 44.9089C220.347 44.9089 219.962 44.7976 219.675 44.5732C219.39 44.3529 219.217 44.0312 219.159 43.6073H219.898C219.94 43.8317 220.044 44.0072 220.204 44.128C220.366 44.2533 220.569 44.3162 220.82 44.3162ZM220.961 39.3722C220.555 39.3722 220.263 39.5011 220.078 39.7558C219.893 40.0114 219.801 40.4177 219.801 40.9724C219.801 41.4949 219.9 41.8985 220.102 42.1808C220.303 42.4645 220.591 42.6047 220.961 42.6047C221.309 42.6047 221.591 42.474 221.804 42.2143C222.02 41.9537 222.124 41.6107 222.124 41.1823C222.124 40.5797 222.029 40.1268 221.834 39.825C221.642 39.5242 221.35 39.3722 220.961 39.3722ZM227.504 38.8519L225.874 43.2503C225.621 43.9059 225.399 44.3357 225.204 44.5356C225.007 44.7388 224.711 44.8379 224.319 44.8379C224.192 44.841 224.074 44.827 223.972 44.7953V44.128C224.081 44.1692 224.217 44.1895 224.384 44.1936C224.546 44.1936 224.681 44.1257 224.792 43.9936C224.903 43.8588 225.026 43.6122 225.165 43.248L225.179 43.1802V43.1829L223.586 38.8519H223.995H224.407L225.554 42.3681L226.715 38.8519H227.108H227.504Z" fill="#264346"/>
</svg>
